<svg xmlns="http://www.w3.org/2000/svg" viewBox="0 0 342.73 267.75"><defs><style>.cls-1{fill:#f7931e;}.cls-2{font-size:27.27px;font-family:NotoSansCJKtc-Bold-B5pc-H, Noto Sans CJK TC;font-weight:700;letter-spacing:0.03em;}.cls-2,.cls-5,.cls-7{fill:#fff;}.cls-3{letter-spacing:0.04em;}.cls-4{letter-spacing:0.04em;}.cls-5{font-size:17.05px;font-family:NotoSansCJKtc-Regular-B5pc-H, Noto Sans CJK TC;letter-spacing:0.2em;}.cls-6{font-size:63.67px;font-family:DFZongYi-Bd-HK-BF, DFZongYiBold-B5;letter-spacing:0.04em;}.cls-8{letter-spacing:0.04em;}</style></defs><title>圖層 2</title><g id="圖層_2" data-name="圖層 2"><g id="圖層_2-2" data-name="圖層 2"><path id="path3719" class="cls-1" d="M171.36,0C76.72,0,0,57.54,0,128.52H0a42.84,42.84,0,0,0,42.84,42.84H85.68a42.74,42.74,0,0,0,42.84,42.84h48.6l.12.23c21.17,1.46,36.94,10.51,37,21.19v16.07a16.07,16.07,0,0,0,32.13,0V235.62a42.75,42.75,0,0,0,42.85-42.84c0-.3-.05-.6-.05-.9a64.28,64.28,0,0,0,53.6-63.36,65.86,65.86,0,0,0-.48-7.15C337.2,53.34,262.22.08,171.36,0Z"/><polygon points="98.69 78.33 95.35 86.04 42.65 86.04 45.98 78.33 98.69 78.33"/><polygon points="158.23 78.33 158.23 86.04 102.72 86.04 106.05 78.33 158.23 78.33"/><polygon points="160.42 106.82 159.66 108.57 157.09 114.53 105.25 114.53 108.58 106.82 160.42 106.82"/><polygon points="94.46 100.49 102.86 100.49 111.27 100.49 119.66 100.49 134.88 100.49 138.22 92.78 123 92.78 114.6 92.78 106.19 92.78 97.8 92.78 94.46 100.49"/><polygon points="113.66 100.49 122.06 100.49 130.47 100.49 138.86 100.49 154.08 100.49 157.42 92.78 142.2 92.78 133.8 92.78 125.39 92.78 117 92.78 113.66 100.49"/><polygon points="78.51 61.1 71.06 78.33 67.72 86.04 55.4 114.54 47 114.54 59.33 86.04 62.66 78.33 70.11 61.1 78.51 61.1"/><polygon points="116.57 88.37 116.18 89.26 116.18 89.26 114.05 94.18 110.72 101.89 105.25 114.53 113.65 114.53 116.98 106.82 117.35 105.97 117.36 105.97 120.69 98.26 122.82 93.33 124.97 88.37 116.57 88.37"/><polygon points="125.73 67.7 124.33 70.93 122.4 75.41 130.79 75.41 132.73 70.93 134.13 67.7 136.99 61.1 128.59 61.1 125.73 67.7"/><polygon points="122.64 74.86 121.24 78.09 119.31 82.57 127.7 82.57 129.64 78.09 131.04 74.86 133.89 68.26 125.5 68.26 122.64 74.86"/><polygon points="163.31 78.33 161.4 82.74 160 85.97 158.2 90.12 158.06 90.45 149.67 90.45 149.81 90.12 151.57 86.04 151.6 85.97 153 82.74 154.91 78.33 163.31 78.33"/><polygon points="127.39 102.83 135.79 102.83 133.66 107.75 133.07 109.12 130.32 115.46 129.73 116.83 128.19 120.39 124.86 128.1 117.41 145.33 109.01 145.33 116.46 128.1 119.8 120.39 121.34 116.83 121.93 115.46 124.67 109.12 125.26 107.75 127.39 102.83"/><text class="cls-2" transform="matrix(0.91, 0, -0.41, 0.91, 28.98, 145.37)">D<tspan class="cls-3" x="20.23" y="0">A</tspan><tspan class="cls-4" x="38.72" y="0">AN</tspan></text><text class="cls-5" transform="matrix(0.91, 0, -0.41, 0.91, 223.32, 112.86)">閱讀挑戰賽</text><text class="cls-6" transform="matrix(0.91, 0, -0.41, 0.91, 113.86, 163.76)"><tspan class="cls-7">金</tspan><tspan class="cls-8" x="66.22" y="0">頭腦</tspan></text><polygon points="112.7 78.33 104.3 78.33 102.72 81.99 102.72 81.99 102.53 82.43 101.14 85.64 100.2 87.82 99.83 88.67 99.56 89.3 99.06 90.45 107.47 90.45 107.79 89.7 107.96 89.3 109.36 86.07 110.93 82.43 110.94 82.41 112.7 78.33"/><polygon points="87.1 113.82 87.58 114.53 96.94 114.53 84.65 96.59 84.3 96.08 79.02 88.37 69.67 88.37 71.66 91.28 74.95 96.08 75.3 96.59 81.82 106.11 87.1 113.82"/></g></g></svg>