<?xml version="1.0" encoding="UTF-8" standalone="no"?>
<!-- Created with Inkscape (http://www.inkscape.org/) -->

<svg
   xmlns:dc="http://purl.org/dc/elements/1.1/"
   xmlns:cc="http://creativecommons.org/ns#"
   xmlns:rdf="http://www.w3.org/1999/02/22-rdf-syntax-ns#"
   xmlns:svg="http://www.w3.org/2000/svg"
   xmlns="http://www.w3.org/2000/svg"
   xmlns:sodipodi="http://sodipodi.sourceforge.net/DTD/sodipodi-0.dtd"
   xmlns:inkscape="http://www.inkscape.org/namespaces/inkscape"
   width="344.72607"
   height="269.755"
   viewBox="0 0 91.208772 71.37268"
   version="1.1"
   id="svg873"
   inkscape:version="0.92.3 (2405546, 2018-03-11)"
   sodipodi:docname="daangoldbrain.svg">
  <defs
     id="defs867" />
  <sodipodi:namedview
     id="base"
     pagecolor="#ffffff"
     bordercolor="#666666"
     borderopacity="1.0"
     inkscape:pageopacity="0.0"
     inkscape:pageshadow="2"
     inkscape:zoom="0.35"
     inkscape:cx="613.79151"
     inkscape:cy="-452.26533"
     inkscape:document-units="mm"
     inkscape:current-layer="layer1"
     showgrid="false"
     units="px"
     fit-margin-top="1"
     fit-margin-bottom="1"
     fit-margin-left="1"
     fit-margin-right="1"
     inkscape:window-width="2560"
     inkscape:window-height="1027"
     inkscape:window-x="-8"
     inkscape:window-y="-8"
     inkscape:window-maximized="1" />
  <metadata
     id="metadata870">
    <rdf:RDF>
      <cc:Work
         rdf:about="">
        <dc:format>image/svg+xml</dc:format>
        <dc:type
           rdf:resource="http://purl.org/dc/dcmitype/StillImage" />
        <dc:title></dc:title>
      </cc:Work>
    </rdf:RDF>
  </metadata>
  <g
     inkscape:label="Layer 1"
     inkscape:groupmode="layer"
     id="layer1"
     transform="translate(179.40793,28.972051)">
    <path
       id="path3719"
       inkscape:connector-curvature="0"
       class="st2"
       d="m -133.80358,-28.707468 c -25.04041,0 -45.33977,15.224391 -45.33977,34.0047787 v 0 c 0,6.2600423 5.07471,11.3350153 11.33501,11.3350153 0,0 0,0 0,0 h 11.33502 c 0,6.279621 5.05536,11.335014 11.33499,11.335014 h 12.85848 c 0.0111,0.01879 0.0204,0.04022 0.0318,0.05953 5.60123,0.387879 9.77397,2.78077 9.77979,5.608108 v 4.250531 c 0,2.354792 1.89574,4.250531 4.25054,4.250531 2.35479,0 4.25053,-1.895739 4.25053,-4.250531 v -4.250531 c 6.27962,0 11.33501,-5.055394 11.33501,-11.335015 0,-0.08096 -0.0106,-0.159014 -0.0127,-0.239448 8.184887,-1.377156 14.179287,-8.462962 14.181139,-16.7629413 -0.0069,-0.632354 -0.04868,-1.263915 -0.125942,-1.891507 C -89.926937,-14.59565 -109.7646,-28.685508 -133.80358,-28.707468 Z"
       style="fill:#f7931e;stroke-width:0.26458332" />
    <path
       inkscape:connector-curvature="0"
       d="m -160.59409,-12.542463 -1.97094,4.5588947 h -4.41317 l -0.88109,2.040185 h 4.41317 l -3.26233,7.540623 h 2.2226 l 3.25975,-7.540623 h 7.31015 l 0.88367,-2.040185 h -7.31015 l 1.97094,-4.5588947 z m 15.47344,5.29e-4 -0.75551,1.74718 -0.0636,0.146245 -0.0594,0.137459 -0.24753,0.5710247 -0.18551,0.430464 -0.26304,0.608749 -0.37052,0.854211 -0.0274,0.06304 h -2.23242 -2.22209 l -0.41806,0.96945 -0.0506,0.116272 -0.36742,0.848527 -0.24908,0.576709 -0.0971,0.225826 -0.0718,0.166398 -0.13124,0.303858 h 2.2231 l 0.0853,-0.197921 0.045,-0.105937 0.37052,-0.854211 0.004,-0.0088 h 11.1647 l -0.46561,1.07952 -0.0372,0.08733 h 2.22002 l 0.0367,-0.08733 0.47646,-1.098124 0.37052,-0.854728 0.50539,-1.166854 h -1.3441 -7.59179 l 0.0274,-0.06304 0.37052,-0.854211 0.75551,-1.7476967 0.0636,-0.146244 0.755,-1.747181 z m -3.18068,7.2150637 -0.10232,0.236678 h -0.001 l -0.40308,0.931209 h -0.0134 -2.22518 -2.22 l -0.88367,2.040185 h 2.22258 2.22519 0.0134 l -0.1602,0.37052 -0.56482,1.30431301 h -0.002 l -0.88108,2.03966799 h 4.52065 l -0.10594,0.244949 -0.15606,0.362251 -0.40721,0.94206 -0.88367,2.03967 -1.97145,4.558895 h 2.2226 l 1.97094,-4.558895 0.88108,-2.03967 0.40773,-0.94206 0.15606,-0.362251 0.10646,-0.244949 h 6.97476 l 0.68006,-1.57664699 0.20103,-0.463021 h -6.9727 l 0.45785,-1.05729801 h -2.2226 l -0.45786,1.05729801 h -2.29805 l 0.0977,-0.226343 h 0.003 l 0.62581,-1.44849001 h 0.61804 3.39308 1.05161 4.02715 l 0.88367,-2.040185 h -4.02715 -1.05161 -3.39566 -0.61754 l 0.50643,-1.167887 z m -12.40904,0.001 0.52659,0.769979 0.87023,1.270207 0.093,0.134875 1.72496,2.51870801 1.39681,2.04018599 0.12919,0.187584 h 2.47427 l -3.25148,-4.746478 -0.0925,-0.134875 -1.39733,-2.040186 z"
       id="polygon18"
       style="stroke-width:0.26458332" />
    <g
       transform="matrix(0.26458333,0,0,0.26458333,-179.47408,-29.067037)"
       id="g48">
      <path
         inkscape:connector-curvature="0"
         class="st3"
         d="m 40.707,128.293 h 5.056 c 5.628,0 7.817,2.915 5.044,9.142 -2.762,6.203 -7.624,9.292 -13.052,9.292 H 32.5 Z m -2.054,15.469 c 3.436,0 6.398,-1.843 8.395,-6.327 2.007,-4.509 0.619,-6.202 -2.817,-6.202 h -1.146 l -5.578,12.529 z"
         id="path40"
         style="fill:#ffffff" />
      <path
         inkscape:connector-curvature="0"
         class="st3"
         d="m 61.732,141.994 h -5.977 l -3.402,4.733 h -3.735 l 14.109,-18.433 h 4.332 l -2.279,18.433 h -3.86 z m 0.478,-2.865 0.351,-2.018 c 0.282,-1.918 0.727,-4.035 1.065,-6.028 h -0.1 c -1.371,2.018 -2.85,4.11 -4.252,6.028 l -1.446,2.018 z"
         id="path42"
         style="fill:#ffffff" />
      <path
         inkscape:connector-curvature="0"
         class="st3"
         d="m 78.621,141.994 h -5.977 l -3.402,4.733 h -3.735 l 14.108,-18.433 h 4.334 l -2.281,18.433 h -3.859 z m 0.479,-2.865 0.351,-2.018 c 0.281,-1.918 0.726,-4.035 1.066,-6.028 h -0.1 c -1.372,2.018 -2.851,4.11 -4.253,6.028 l -1.446,2.018 z"
         id="path44"
         style="fill:#ffffff" />
      <path
         inkscape:connector-curvature="0"
         class="st3"
         d="m 93.043,128.293 h 3.76 l 0.984,9.814 0.069,3.986 h 0.124 c 0.655,-1.918 1.467,-4.36 2.399,-6.452 l 3.271,-7.348 h 3.486 l -8.207,18.433 h -3.734 l -0.938,-9.864 -0.104,-3.961 h -0.125 c -0.712,1.993 -1.47,4.31 -2.412,6.427 l -3.294,7.398 h -3.486 z"
         id="path46"
         style="fill:#ffffff" />
    </g>
    <g
       id="g60"
       transform="matrix(0.26458333,0,0,0.26458333,-179.47408,-29.596204)">
      <path
         class="st3"
         d="m 230.612,106.181 -4.115,9.241 h -1.091 l 6.079,-13.652 h 5.687 l -1.964,4.411 z m 8.35,7.73 c -0.284,0.639 -0.556,0.935 -1.051,1.138 -0.45,0.171 -1.119,0.202 -2.053,0.202 0.073,-0.233 0.107,-0.593 0.123,-0.872 -0.27,0.186 -0.538,0.265 -0.865,0.265 h -1.355 c -0.981,0 -1.114,-0.265 -0.697,-1.2 l 0.798,-1.792 h -1.277 c -0.962,1.636 -2.132,2.617 -4.459,3.226 0.003,-0.25 -0.096,-0.623 -0.223,-0.795 1.994,-0.452 2.943,-1.185 3.731,-2.431 h -1.105 l 1.242,-2.79 c -0.456,0.218 -0.896,0.437 -1.33,0.607 -0.05,-0.202 -0.259,-0.467 -0.399,-0.607 1.396,-0.546 3.097,-1.465 4.081,-2.307 l 0.81,0.28 c -0.781,0.671 -1.798,1.31 -2.835,1.855 h 5.515 c -0.436,-0.562 -1.021,-1.17 -1.577,-1.638 l 0.854,-0.482 c 0.855,0.67 1.799,1.699 2.219,2.4 l -0.951,0.561 c -0.122,-0.25 -0.309,-0.529 -0.544,-0.841 l -1.318,2.961 h -1.434 l -0.791,1.776 c -0.139,0.311 -0.106,0.342 0.221,0.342 h 1.075 c 0.296,0 0.414,-0.124 0.905,-1.121 0.117,0.155 0.444,0.296 0.697,0.357 -0.297,0.562 -0.548,0.951 -0.792,1.186 0.584,0.016 1.114,0.016 1.27,0.016 0.211,-0.016 0.3,-0.078 0.396,-0.296 l 3.442,-7.73 h -4.704 l 1.95,-4.38 h 5.826 z m -4.501,-8.541 0.465,-1.044 h -3.489 l -0.465,1.044 z m -2.254,-2.774 -0.438,0.982 h 3.489 l 0.438,-0.982 z m -0.395,8.306 h 3.816 l 0.652,-1.465 h -3.816 z m 9.831,-5.532 0.451,-1.013 h -3.599 l -0.451,1.013 z m -2.37,-2.758 -0.444,0.997 h 3.599 l 0.444,-0.997 z"
         id="path50"
         inkscape:connector-curvature="0"
         style="fill:#ffffff" />
      <path
         class="st3"
         d="m 248.382,114.518 h -3.038 l -0.326,0.732 h -0.95 l 2.325,-5.221 h 3.988 z m -1.462,-3.538 -1.152,2.587 h 2.057 l 1.152,-2.587 z m 4.075,-2.119 h -4.19 l 0.417,-0.935 h 4.19 z m -3.143,-2.073 0.409,-0.919 h 3.973 l -0.409,0.919 z m 5.277,-2.057 h -4.985 l 0.431,-0.967 h 4.985 z m 2.349,8.479 c 0.937,0.482 1.951,1.075 2.559,1.496 l -0.994,0.764 c -0.585,-0.438 -1.578,-1.076 -2.494,-1.606 l 0.789,-0.653 h -2.976 l 0.692,0.545 c -1.195,0.654 -2.942,1.325 -4.27,1.684 -0.074,-0.219 -0.271,-0.546 -0.406,-0.732 1.321,-0.344 3.009,-0.951 3.938,-1.496 H 250.4 l 2.033,-4.567 h 7.446 l -2.033,4.567 h -2.368 z m -4.235,-9.492 c 0.008,-0.576 -0.179,-1.418 -0.424,-2.057 l 1.117,-0.374 c 0.291,0.607 0.506,1.419 0.543,1.964 z m 0.512,8.79 h 5.328 l 0.319,-0.717 h -5.328 z m 1.856,-7.528 h 8.319 l -1.374,3.086 h -8.319 z m -1.287,6.25 h 5.328 l 0.298,-0.67 h -5.328 z m 0.548,-1.231 h 5.328 l 0.292,-0.655 h -5.328 z m 0.613,-2.603 h 1.496 l 0.771,-1.729 h -1.496 z m 4.55,-4.55 h -3.583 l 0.354,-0.795 h 3.583 l 0.382,-0.857 h 1.137 l -0.382,0.857 h 3.817 l -0.354,0.795 h -3.817 l -0.333,0.748 h 3.381 l -0.34,0.764 h -7.556 l 0.34,-0.764 h 3.038 z m -0.515,4.55 0.771,-1.729 h -1.744 l -0.77,1.729 z m 3.107,-1.729 h -1.558 l -0.771,1.729 h 1.558 z"
         id="path52"
         inkscape:connector-curvature="0"
         style="fill:#ffffff" />
      <path
         class="st3"
         d="m 269.733,108.799 c -0.642,0.218 -1.278,0.421 -1.904,0.639 l -2.061,4.629 c -0.285,0.64 -0.58,0.951 -1.053,1.138 -0.441,0.187 -1.054,0.234 -2.029,0.218 0.078,-0.279 0.146,-0.747 0.136,-1.074 0.663,0.015 1.286,0.015 1.465,0 0.187,0 0.286,-0.048 0.39,-0.281 l 1.88,-4.224 -2.159,0.687 0.197,-1.106 c 0.682,-0.203 1.547,-0.468 2.482,-0.749 l 1.464,-3.288 h -1.947 l 0.479,-1.075 h 1.947 l 1.388,-3.117 h 1.091 l -1.388,3.117 h 1.526 l -0.479,1.075 h -1.526 l -1.29,2.898 1.631,-0.514 z m 5.845,-7.496 h 1.091 l -3.04,6.826 c -1.374,3.086 -2.943,5.595 -6.895,7.262 -0.053,-0.265 -0.253,-0.654 -0.42,-0.841 2.857,-1.169 4.32,-2.774 5.404,-4.753 -1.155,0.67 -2.312,1.309 -3.303,1.854 l -0.193,-0.967 c 1.009,-0.483 2.57,-1.293 4.115,-2.104 l 0.208,-0.467 z m -3.506,5.563 c 0.2,-0.903 0.157,-2.275 -0.055,-3.304 l 1.057,-0.452 c 0.257,0.998 0.308,2.354 0.179,3.241 z m 3.423,7.325 c 0.374,0 0.66,-0.468 1.491,-2.229 0.167,0.218 0.489,0.404 0.781,0.483 -1.032,2.072 -1.631,2.789 -2.675,2.789 h -1.62 c -1.122,0 -1.268,-0.374 -0.629,-1.808 l 5.398,-12.125 h 1.106 l -3.074,6.904 0.421,-0.28 c 0.702,0.872 1.463,2.104 1.769,2.851 l -1.132,0.826 c -0.271,-0.685 -0.82,-1.761 -1.404,-2.618 l -1.985,4.458 c -0.285,0.639 -0.254,0.748 0.135,0.748 h 1.418 z m 5.911,-10.721 c -1.146,1.137 -2.513,2.493 -3.524,3.365 l -0.625,-0.452 c 1.003,-0.888 2.455,-2.399 3.341,-3.443 z"
         id="path54"
         inkscape:connector-curvature="0"
         style="fill:#ffffff" />
      <path
         class="st3"
         d="m 286.468,112.991 -1.083,2.431 h -1.091 l 1.083,-2.431 h -3.521 l 0.458,-1.028 h 3.521 l 0.492,-1.106 h -2.882 l 2.346,-5.269 h 6.933 l -2.346,5.269 h -2.96 l -0.492,1.106 h 3.475 l -0.458,1.028 z m -1.639,-3.039 h 1.947 l 0.583,-1.31 h -1.947 z m 0.965,-2.167 h 1.947 l 0.576,-1.292 h -1.947 z m 3.434,-3.023 h -3.194 l 1.38,-3.101 h 3.194 z m 0.132,-2.29 h -1.418 l -0.659,1.48 h 1.418 z m 0.991,6.17 h -1.994 l -0.583,1.31 h 1.994 z m 7.719,-1.167 c -1.188,1.511 -2.618,3.008 -4.166,4.316 -0.227,1.419 -0.109,2.275 0.453,2.307 0.32,0.016 0.936,-0.842 1.716,-2.384 0.114,0.233 0.457,0.514 0.61,0.622 -1.401,2.447 -2.305,3.148 -2.914,3.117 -0.992,-0.046 -1.332,-0.997 -1.171,-2.618 -1.339,1.014 -2.727,1.854 -4.074,2.431 -0.07,-0.265 -0.274,-0.607 -0.481,-0.81 1.587,-0.624 3.215,-1.621 4.753,-2.836 0.261,-1.356 0.77,-3.023 1.429,-4.925 l -1.764,0.218 0.332,-1.06 1.825,-0.218 c 0.496,-1.356 1.07,-2.821 1.703,-4.349 h 1.091 c -0.621,1.465 -1.182,2.898 -1.663,4.224 l 3.832,-0.452 -0.325,1.044 -3.885,0.468 c -0.504,1.449 -0.917,2.759 -1.176,3.865 1.18,-1.075 2.269,-2.26 3.198,-3.476 z m -6.762,-0.982 h -1.994 l -0.576,1.292 h 1.994 z m 1.924,-1.731 h -3.256 l 1.38,-3.101 h 3.256 z m 0.116,-2.29 h -1.48 l -0.659,1.48 h 1.48 z m 5.342,2.103 c 0.015,-0.732 -0.256,-1.838 -0.62,-2.633 l 1.072,-0.484 c 0.385,0.78 0.708,1.839 0.725,2.571 z"
         id="path56"
         inkscape:connector-curvature="0"
         style="fill:#ffffff" />
      <path
         class="st3"
         d="m 311.866,113.365 h -2.056 c 1.377,0.404 2.784,0.92 3.653,1.278 l -1.255,0.685 c -0.848,-0.404 -2.328,-0.966 -3.844,-1.479 l 0.776,-0.483 h -3.459 l 0.498,0.421 c -1.558,0.701 -3.885,1.309 -5.684,1.604 -0.05,-0.202 -0.202,-0.561 -0.323,-0.778 1.584,-0.233 3.636,-0.749 4.917,-1.247 h -1.885 l 1.7,-3.818 c -0.911,0.436 -1.818,0.795 -2.631,1.044 -0.044,-0.249 -0.198,-0.639 -0.326,-0.842 1.528,-0.389 3.358,-1.138 4.774,-2.01 h -3.506 l 0.382,-0.857 h 3.957 l 0.313,-0.701 h -2.149 l 0.305,-0.686 h 2.149 l 0.306,-0.686 h -2.384 l 0.326,-0.732 h 2.384 l 0.306,-0.687 h 1.091 l -0.306,0.687 h 3.552 l 0.306,-0.687 h 1.091 l -0.306,0.687 h 2.337 l -0.326,0.732 h -2.337 l -0.306,0.686 h 2.165 l -0.305,0.686 h -2.165 l -0.313,0.701 h 3.988 l -0.382,0.857 h -3.334 c 0.628,0.795 1.709,1.48 2.865,1.823 -0.316,0.187 -0.831,0.607 -1.099,0.857 -0.62,-0.219 -1.208,-0.577 -1.706,-0.997 z m -0.489,-1.418 h -6.466 l -0.333,0.748 h 6.466 z m -5.491,-7.403 h -1.074 l 1.054,-2.368 h 6.231 c 0,-0.281 -0.03,-0.562 -0.067,-0.795 l 1.277,-0.313 c 0.056,0.328 0.102,0.749 0.099,1.107 h 5.795 l -1.054,2.368 h -1.121 l 0.646,-1.449 h -11.14 z m 6.108,6.016 h -6.466 l -0.326,0.732 h 6.466 z m 0.611,-1.372 h -6.466 l -0.319,0.717 h 6.466 z m -4.62,-1.449 c -0.368,0.265 -0.766,0.53 -1.157,0.778 h 5.936 c -0.185,-0.248 -0.338,-0.498 -0.447,-0.778 z m 0.662,-0.857 h 3.552 l 0.313,-0.701 h -3.552 z m 0.617,-1.387 h 3.552 l 0.306,-0.686 h -3.552 z"
         id="path58"
         inkscape:connector-curvature="0"
         style="fill:#ffffff" />
    </g>
    <g
       transform="matrix(0.26458333,0,0,0.26458333,-179.47408,-29.067037)"
       id="g68">
      <path
         inkscape:connector-curvature="0"
         class="st3"
         d="m 180.267,137.172 -2.807,6.306 h -19.768 l -1.947,4.373 h 20.677 l -2.833,6.363 h -20.677 l -5.666,12.725 h 21.529 l -2.833,6.362 h -51.125 l 2.833,-6.362 h 21.586 l 5.666,-12.725 h -20.62 l 2.833,-6.363 h 20.62 l 1.947,-4.373 h -19.995 l 2.807,-6.306 z m -56.441,19.086 h 8.351 l -0.324,1.875 c -0.124,0.872 0.119,1.307 0.725,1.307 h 6.646 l -2.604,5.851 h -9.771 c -2.537,0 -3.686,-1.42 -3.443,-4.26 z m 23.753,-34.595 h 32.776 l 0.98,4.943 c 0.1,1.135 0.453,1.704 1.059,1.704 h 4.09 l -3.035,6.817 h -7.271 c -1.213,0 -1.988,-0.512 -2.328,-1.534 l -1.757,-5.112 h -22.268 l -6.65,5.112 c -1.289,1.022 -2.578,1.534 -3.865,1.534 h -7.726 l 3.035,-6.817 h 4.545 c 0.719,0 1.635,-0.568 2.747,-1.704 z m 16.92,34.595 h 8.407 c -3.063,3.901 -5.398,6.381 -7.005,7.441 -1.723,1.061 -3.378,1.59 -4.969,1.59 h -9.543 l 2.604,-5.851 h 6.362 c 1.06,0.001 2.441,-1.058 4.144,-3.18 z"
         id="path62"
         style="fill:#ffffff" />
      <path
         inkscape:connector-curvature="0"
         d="m 184.322,156.258 h 6.816 l -3.291,10.452 h 3.692 l 6.416,-10.452 h 6.532 l -6.358,10.452 h 3.352 l -2.934,6.589 h -23.461 l 2.934,-6.589 h 3.011 z m 10.597,-24.312 h 21.359 l -7.587,17.042 c -1.333,2.992 -3.665,4.487 -6.997,4.487 h -16.36 z m 6.016,15.45 c 1.098,0 1.858,-0.473 2.28,-1.42 l 3.516,-7.896 h -7.499 l -4.148,9.315 h 5.851 z m 20.401,-25.278 -2.934,6.589 h -22.723 l 2.934,-6.589 z m -12.759,42.945 h 7.726 l -5.269,6.476 c -1.303,1.478 -3.184,2.215 -5.645,2.215 h -5.965 l 2.428,-5.453 h 3.465 c 0.303,0 0.633,-0.19 0.992,-0.568 z m 41.137,-43.4 -2.858,6.419 h -9.316 l -1.983,2.67 h 9.202 l -12.57,28.231 c -1.417,3.182 -3.943,4.772 -7.578,4.772 h -19.314 l 14.694,-33.004 h 7.669 l 1.927,-2.67 h -10.055 l 2.858,-6.419 h 27.324 z m -25.963,35.731 c 1.211,0 2.061,-0.548 2.55,-1.647 l 0.481,-1.08 h -10.396 l -1.214,2.727 z m -6.369,7.669 h 8.01 l -0.279,1.647 c -0.207,1.06 0.145,1.591 1.053,1.591 h 3.238 l -2.529,5.68 h -7.044 c -2.424,0 -3.467,-1.061 -3.127,-3.181 z m 1.66,-16.36 h 10.396 l 1.315,-2.954 h -10.396 z m 3.92,-8.805 h 10.396 l 1.214,-2.727 h -10.396 z"
         id="path64" />
      <path
         inkscape:connector-curvature="0"
         d="m 266.708,121.891 h 10.622 l -20.436,45.899 c -1.77,3.976 -4.605,5.964 -8.506,5.964 h -3.692 l 2.934,-6.589 h 1.647 c 0.87,0 1.518,-0.474 1.939,-1.42 l 4.123,-9.258 h -4.261 l -5.033,11.304 c -1.813,3.899 -4.289,5.888 -7.427,5.964 h -3.692 l 2.934,-6.589 h 1.192 c 0.303,0 0.666,-0.474 1.087,-1.42 l 19.525,-43.853 h 7.044 z m -12.797,28.232 h 4.261 l 3.541,-7.953 h -4.261 z m 27.115,-7.953 h 8.236 l -1.863,2.272 h 12.668 l -10.926,24.54 c -1.349,3.029 -3.861,4.544 -7.534,4.544 h -25.392 l 12.949,-29.084 h 10.111 z m -20.716,-6.419 h 4.261 l 3.237,-7.271 h -4.261 z m 20.45,31.641 c 1.211,0 2.02,-0.454 2.425,-1.363 h -5.51 l -1.261,-2.783 -3.512,2.783 h -6.305 l -0.607,1.363 z m -13.556,-2.727 7.219,-5.624 -2.438,-5.113 z m 5.666,-12.724 h 5.681 l 1.291,2.839 3.707,-2.839 h 5.908 l 0.632,-1.42 h -16.587 z m 9.889,-30.505 h 7.271 l -8.18,8.805 c -0.342,0.341 -0.546,0.587 -0.613,0.738 -0.101,0.228 -0.134,0.511 -0.096,0.853 l -0.765,9.373 h -7.271 l 0.961,-9.43 c 0.033,-0.417 0.109,-0.757 0.228,-1.022 0.084,-0.189 0.261,-0.417 0.531,-0.682 z m -0.837,37.605 2.25,4.772 4.426,-9.941 z m 11.062,-37.605 h 7.271 l -8.351,8.805 c -0.379,0.341 -0.603,0.587 -0.669,0.738 -0.101,0.228 -0.114,0.511 -0.039,0.853 l -0.424,9.373 h -7.271 l 0.563,-9.43 c 0.072,-0.417 0.167,-0.757 0.285,-1.022 0.084,-0.189 0.242,-0.417 0.473,-0.682 z m 10.282,0 h 7.271 l -8.237,8.805 c -0.303,0.341 -0.488,0.587 -0.555,0.738 -0.101,0.228 -0.114,0.511 -0.039,0.853 l 0.258,9.373 h -7.271 l -0.118,-9.43 c 0.033,-0.417 0.109,-0.757 0.228,-1.022 0.084,-0.189 0.242,-0.417 0.473,-0.682 z"
         id="path66" />
    </g>
  </g>
</svg>
