<?xml version="1.0" encoding="UTF-8" standalone="no"?>
<!-- Generator: Adobe Illustrator 22.0.0, SVG Export Plug-In . SVG Version: 6.00 Build 0)  -->

<svg
   xmlns:dc="http://purl.org/dc/elements/1.1/"
   xmlns:cc="http://creativecommons.org/ns#"
   xmlns:rdf="http://www.w3.org/1999/02/22-rdf-syntax-ns#"
   xmlns:svg="http://www.w3.org/2000/svg"
   xmlns="http://www.w3.org/2000/svg"
   xmlns:sodipodi="http://sodipodi.sourceforge.net/DTD/sodipodi-0.dtd"
   xmlns:inkscape="http://www.inkscape.org/namespaces/inkscape"
   version="1.1"
   x="0px"
   y="0px"
   viewBox="0 0 344.16 271.125"
   style="enable-background:new 0 0 344.16 271.125;"
   xml:space="preserve"
   id="svg85"
   sodipodi:docname="daangoldbrain.svg"
   inkscape:version="0.92.3 (2405546, 2018-03-11)"><metadata
   id="metadata91"><rdf:RDF><cc:Work
       rdf:about=""><dc:format>image/svg+xml</dc:format><dc:type
         rdf:resource="http://purl.org/dc/dcmitype/StillImage" /></cc:Work></rdf:RDF></metadata><defs
   id="defs89" /><sodipodi:namedview
   pagecolor="#ffffff"
   bordercolor="#666666"
   borderopacity="1"
   objecttolerance="10"
   gridtolerance="10"
   guidetolerance="10"
   inkscape:pageopacity="0"
   inkscape:pageshadow="2"
   inkscape:window-width="1137"
   inkscape:window-height="658"
   id="namedview87"
   showgrid="false"
   inkscape:zoom="0.87044721"
   inkscape:cx="97.403588"
   inkscape:cy="268.61024"
   inkscape:window-x="533"
   inkscape:window-y="194"
   inkscape:window-maximized="0"
   inkscape:current-layer="圖層_2" />
<style
   type="text/css"
   id="style2">
	.st0{display:none;opacity:0.3;}
	.st1{display:inline;}
	.st2{fill:#F7931E;}
	.st3{fill:#FFFFFF;}
</style>
<g
   id="圖層_1">
	<g
   class="st0"
   id="g14">
		<path
   class="st1"
   d="M77.76,88.209c4.224,12.479,11.967,22.526,23.934,27.39c-1.919,1.6-4.416,4.992-5.631,7.167    c-11.583-5.439-19.007-14.783-23.999-27.134c-3.456,10.687-10.367,20.67-23.934,27.198c-1.216-2.112-3.456-4.863-5.695-6.463    c14.655-6.527,20.734-17.151,23.23-28.158H43.651v-7.871h23.294c0.64-6.016,0.576-11.839,0.64-17.087h8.319    c-0.064,5.248-0.128,11.135-0.768,17.087h25.15v7.871H77.76z"
   id="path4" />
		<path
   class="st1"
   d="M152.191,95.761c-1.472,4.671-3.456,8.639-5.952,11.903c6.848,2.879,13.183,5.887,17.663,8.703l-5.632,6.72    c-4.352-2.944-10.815-6.272-17.982-9.536c-6.592,5.056-15.615,7.872-27.71,9.6c-0.704-2.048-3.136-5.76-4.736-7.68    c10.111-0.896,17.791-2.624,23.486-5.695c-5.504-2.304-11.199-4.352-16.255-5.952c1.664-2.304,3.456-5.056,5.184-8.063h-12.479    v-7.167h16.319c1.728-3.392,3.136-6.784,4.224-9.919l8.896,1.664c-1.024,2.624-2.24,5.439-3.584,8.255h11.263    c0.32-1.792,0.512-3.776,0.704-5.824l9.215,0.576v-6.208h-38.077v7.167h-7.744V70.099h22.718c-0.704-1.856-1.536-3.84-2.24-5.568    l8.575-1.984c1.088,2.304,2.432,5.184,3.328,7.552h21.566v14.207h-8.063c-0.256,1.472-0.512,2.88-0.768,4.288h10.047v7.167    H152.191z M129.985,95.761c-0.959,1.664-1.855,3.2-2.815,4.735c3.583,1.152,7.231,2.496,11.007,3.904    c2.048-2.368,3.648-5.248,4.864-8.639H129.985z"
   id="path6" />
		<path
   class="st1"
   d="M203.904,88.657v6.655h20.415v6.848h-10.111l6.399,2.304c-2.24,3.584-4.735,7.424-6.719,10.175h13.759v6.976    H172.29v-6.976h12.607c-1.024-2.944-3.2-7.167-5.312-10.367l5.056-2.112h-9.279v-6.848h20.351v-6.655h-12.991v-3.136    c-2.688,1.28-5.44,2.432-8.256,3.456c-1.024-2.24-3.136-5.12-5.056-7.04c12.031-3.456,23.551-9.919,29.63-19.455l7.231,3.264    c-0.576,0.832-1.152,1.664-1.792,2.56c6.271,5.632,16.639,10.943,26.238,13.631c-1.728,1.664-4.096,4.672-5.248,6.656    c-2.88-1.024-5.823-2.304-8.703-3.712v3.776H203.904z M186.05,102.16c2.24,3.136,4.671,7.359,5.567,10.175l-5.248,2.304h9.343    V102.16H186.05z M211.135,81.682c-4.032-2.496-7.807-5.312-11.071-8.319c-3.072,3.2-6.591,5.888-10.367,8.319H211.135z     M203.904,102.16v12.479h8l-4.288-1.792c1.984-2.88,4.352-7.36,5.631-10.688H203.904z"
   id="path8" />
		<path
   class="st1"
   d="M261.633,113.999c-8.959,2.176-18.75,4.479-26.046,6.144l-1.728-7.104c4.352-0.768,10.175-1.92,16.319-3.2    l-1.536-0.384c0.896-3.583,1.92-9.023,2.24-13.055l7.423,1.6c-1.088,3.712-2.176,7.68-3.2,10.815l5.887-1.216L261.633,113.999z     M260.673,73.106h-25.726v-6.976h25.726V73.106z M259.265,95.505h-22.59V77.586h22.59V95.505z M239.554,109.904    c-0.064-3.008-0.896-7.808-2.112-11.391l6.08-1.536c1.344,3.584,2.304,8.191,2.496,11.199L239.554,109.904z M252.481,83.537    h-9.407v6.016h9.407V83.537z M275.967,114.511c-3.456,3.264-9.279,6.656-14.207,8.511c-1.088-1.344-3.328-3.52-4.992-4.863    c4.8-1.664,10.303-4.928,12.991-7.616L275.967,114.511z M272.128,76.434c0.256-1.408,0.448-2.88,0.64-4.288h-10.559v-6.399h30.846    v6.399h-11.967c-0.448,1.472-0.896,2.944-1.344,4.288h11.903v33.79h-27.902v-33.79H272.128z M284.351,82.065h-13.695v4.032h13.695    V82.065z M284.351,91.281h-13.695v4.031h13.695V91.281z M284.351,100.624h-13.695v4.096h13.695V100.624z M284.351,111.056    c3.392,2.24,8.191,5.631,10.688,7.936l-6.08,4.031c-2.176-2.304-6.848-5.951-10.367-8.383L284.351,111.056z"
   id="path10" />
		<path
   class="st1"
   d="M319.169,115.151c0,3.264-0.512,5.248-2.432,6.335c-1.919,1.216-4.607,1.344-8.703,1.344    c-0.192-1.856-1.024-4.927-1.856-6.719c2.368,0.128,4.736,0.064,5.567,0.064c0.768,0,1.088-0.256,1.088-1.152v-14.911    c-1.28,1.28-2.624,2.624-3.904,3.968l-1.792-4.288c-0.512,8.191-1.728,17.086-4.479,23.486c-1.024-1.216-3.776-3.584-5.12-4.288    c3.456-8.768,3.711-21.438,3.711-30.718V65.427h17.919V115.151z M307.458,88.273c0,2.751-0.064,5.823-0.192,9.151    c1.6-1.088,3.52-2.56,5.568-4.096v-6.336l-2.432,1.664c-0.576-1.152-1.728-2.816-2.944-4.416V88.273z M307.458,72.274v8    l1.984-1.28c1.088,1.216,2.368,2.624,3.392,3.967V72.274H307.458z M328.128,88.337c-1.472-3.456-4.479-8.384-7.935-12.991    c2.624-3.968,5.439-8.768,6.912-11.967l6.591,1.536c-1.92,3.52-4.288,7.231-6.271,10.367c2.751,3.583,5.503,7.679,6.976,10.495    L328.128,88.337z M342.655,87.185c-0.768,1.216-1.6,2.432-2.432,3.583h15.871v31.934h-7.04v-2.24H328.96v2.496h-6.783V90.769    h10.495c0.768-1.792,1.536-3.52,1.984-5.056l4.479,0.832c-1.536-3.2-4.352-7.359-7.423-11.263    c2.496-3.712,5.248-8.191,6.72-11.327l6.591,1.6c-1.92,3.264-4.16,6.72-6.144,9.664c2.752,3.328,5.567,7.167,6.912,9.791    l-4.544,1.92L342.655,87.185z M349.055,96.912h-6.335l5.056,2.688c-1.152,1.728-2.496,3.52-4.032,5.184    c1.984,1.6,3.84,3.2,5.184,4.543l-4.288,4.288c-1.216-1.408-3.008-3.072-5.12-4.735c-2.112,1.855-4.48,3.52-6.848,4.928    c-0.832-1.216-2.432-2.944-3.712-3.968v4.479h20.095V96.912z M328.96,96.912v12.735c2.176-1.216,4.224-2.688,6.144-4.288    c-1.792-1.344-3.583-2.624-5.312-3.711L333.76,98c1.728,1.024,3.584,2.24,5.312,3.456c1.344-1.472,2.56-3.008,3.456-4.543H328.96z     M351.55,87.377c-1.6-3.264-4.863-7.936-8.511-12.095c2.688-3.712,5.375-8.191,6.976-11.263l6.719,1.6    c-1.919,3.2-4.16,6.656-6.208,9.536c2.752,3.2,5.696,6.847,7.231,9.471L351.55,87.377z"
   id="path12" />
	</g>
</g>
<g
   id="圖層_2">
	<path
   id="path3719"
   inkscape:connector-curvature="0"
   class="st2"
   d="M172.613,1.359C77.972,1.359,1.25,58.9,1.25,129.881l0,0   c0,23.66,19.18,42.841,42.841,42.841c0,0,0,0,0,0h42.841c0,23.734,19.107,42.841,42.841,42.841h48.599   c0.042,0.071,0.077,0.152,0.12,0.225c21.17,1.466,36.941,10.51,36.963,21.196v16.065c0,8.9,7.165,16.065,16.065,16.065   s16.065-7.165,16.065-16.065v-16.065c23.734,0,42.841-19.107,42.841-42.841c0-0.306-0.04-0.601-0.048-0.905   c30.935-5.205,53.591-31.986,53.598-63.356c-0.026-2.39-0.184-4.777-0.476-7.149C338.446,54.695,263.469,1.442,172.613,1.359   L172.613,1.359z" />
	<polygon
   points="99.938,79.686 96.598,87.396 43.898,87.396 47.228,79.686  "
   id="polygon18" />
	<polygon
   points="159.478,79.686 159.478,87.396 103.968,87.396 107.298,79.686  "
   id="polygon20" />
	<polygon
   points="161.668,108.181 160.908,109.931 158.338,115.891 106.498,115.891 109.828,108.181  "
   id="polygon22" />
	<polygon
   points="95.713,101.851 104.113,101.851 112.523,101.851 120.913,101.851 136.133,101.851 139.473,94.141 124.253,94.141    115.853,94.141 107.443,94.141 99.053,94.141  "
   id="polygon24" />
	<polygon
   points="114.908,101.851 123.308,101.851 131.718,101.851 140.108,101.851 155.328,101.851 158.668,94.141 143.448,94.141    135.048,94.141 126.638,94.141 118.248,94.141  "
   id="polygon26" />
	<polygon
   points="79.758,62.456 72.308,79.686 68.968,87.396 56.648,115.896 48.248,115.896 60.578,87.396 63.908,79.686    71.358,62.456  "
   id="polygon28" />
	<polygon
   points="117.818,89.726 117.432,90.621 117.428,90.621 115.298,95.541 111.968,103.251 106.498,115.891 114.898,115.891    118.228,108.181 118.598,107.326 118.608,107.326 121.938,99.616 124.068,94.686 126.218,89.726  "
   id="polygon30" />
	<polygon
   points="126.984,69.061 125.584,72.291 123.654,76.771 132.044,76.771 133.984,72.291 135.384,69.061 138.239,62.458    129.84,62.458  "
   id="polygon32" />
	<polygon
   points="123.889,76.218 122.489,79.448 120.559,83.928 128.949,83.928 130.889,79.448 132.289,76.218 135.144,69.614    126.744,69.614  "
   id="polygon34" />
	<polygon
   points="164.558,79.686 162.648,84.096 161.248,87.326 159.448,91.476 159.308,91.806 150.918,91.806 151.058,91.476    152.818,87.396 152.848,87.326 154.248,84.096 156.158,79.686  "
   id="polygon36" />
	<polygon
   points="128.644,104.186 137.044,104.186 134.914,109.106 134.324,110.476 131.574,116.816 130.984,118.186    129.444,121.746 126.114,129.456 118.664,146.686 110.264,146.686 117.714,129.456 121.054,121.746 122.594,118.186    123.184,116.816 125.924,110.476 126.514,109.106  "
   id="polygon38" />
	<g
   id="g48">
		<path
   class="st3"
   d="M40.707,128.293h5.056c5.628,0,7.817,2.915,5.044,9.142c-2.762,6.203-7.624,9.292-13.052,9.292H32.5    L40.707,128.293z M38.653,143.762c3.436,0,6.398-1.843,8.395-6.327c2.007-4.509,0.619-6.202-2.817-6.202h-1.146l-5.578,12.529    H38.653z"
   id="path40" />
		<path
   class="st3"
   d="M61.732,141.994h-5.977l-3.402,4.733h-3.735l14.109-18.433h4.332l-2.279,18.433h-3.86L61.732,141.994z     M62.21,139.129l0.351-2.018c0.282-1.918,0.727-4.035,1.065-6.028h-0.1c-1.371,2.018-2.85,4.11-4.252,6.028l-1.446,2.018H62.21z"
   id="path42" />
		<path
   class="st3"
   d="M78.621,141.994h-5.977l-3.402,4.733h-3.735l14.108-18.433h4.334l-2.281,18.433h-3.859L78.621,141.994z     M79.1,139.129l0.351-2.018c0.281-1.918,0.726-4.035,1.066-6.028h-0.1c-1.372,2.018-2.851,4.11-4.253,6.028l-1.446,2.018H79.1z"
   id="path44" />
		<path
   class="st3"
   d="M93.043,128.293h3.76l0.984,9.814l0.069,3.986h0.124c0.655-1.918,1.467-4.36,2.399-6.452l3.271-7.348h3.486    l-8.207,18.433h-3.734l-0.938-9.864l-0.104-3.961h-0.125c-0.712,1.993-1.47,4.31-2.412,6.427l-3.294,7.398h-3.486L93.043,128.293z    "
   id="path46" />
	</g>
	<g
   id="g60"
   transform="translate(0,-2)">
		<path
   class="st3"
   d="m 230.612,106.181 -4.115,9.241 h -1.091 l 6.079,-13.652 h 5.687 l -1.964,4.411 z m 8.35,7.73 c -0.284,0.639 -0.556,0.935 -1.051,1.138 -0.45,0.171 -1.119,0.202 -2.053,0.202 0.073,-0.233 0.107,-0.593 0.123,-0.872 -0.27,0.186 -0.538,0.265 -0.865,0.265 h -1.355 c -0.981,0 -1.114,-0.265 -0.697,-1.2 l 0.798,-1.792 h -1.277 c -0.962,1.636 -2.132,2.617 -4.459,3.226 0.003,-0.25 -0.096,-0.623 -0.223,-0.795 1.994,-0.452 2.943,-1.185 3.731,-2.431 h -1.105 l 1.242,-2.79 c -0.456,0.218 -0.896,0.437 -1.33,0.607 -0.05,-0.202 -0.259,-0.467 -0.399,-0.607 1.396,-0.546 3.097,-1.465 4.081,-2.307 l 0.81,0.28 c -0.781,0.671 -1.798,1.31 -2.835,1.855 h 5.515 c -0.436,-0.562 -1.021,-1.17 -1.577,-1.638 l 0.854,-0.482 c 0.855,0.67 1.799,1.699 2.219,2.4 l -0.951,0.561 c -0.122,-0.25 -0.309,-0.529 -0.544,-0.841 l -1.318,2.961 h -1.434 l -0.791,1.776 c -0.139,0.311 -0.106,0.342 0.221,0.342 h 1.075 c 0.296,0 0.414,-0.124 0.905,-1.121 0.117,0.155 0.444,0.296 0.697,0.357 -0.297,0.562 -0.548,0.951 -0.792,1.186 0.584,0.016 1.114,0.016 1.27,0.016 0.211,-0.016 0.3,-0.078 0.396,-0.296 l 3.442,-7.73 h -4.704 l 1.95,-4.38 h 5.826 z m -4.501,-8.541 0.465,-1.044 h -3.489 l -0.465,1.044 z m -2.254,-2.774 -0.438,0.982 h 3.489 l 0.438,-0.982 z m -0.395,8.306 h 3.816 l 0.652,-1.465 h -3.816 z m 9.831,-5.532 0.451,-1.013 h -3.599 l -0.451,1.013 z m -2.37,-2.758 -0.444,0.997 h 3.599 l 0.444,-0.997 z"
   id="path50"
   inkscape:connector-curvature="0"
   style="fill:#ffffff" />
		<path
   class="st3"
   d="m 248.382,114.518 h -3.038 l -0.326,0.732 h -0.95 l 2.325,-5.221 h 3.988 z m -1.462,-3.538 -1.152,2.587 h 2.057 l 1.152,-2.587 z m 4.075,-2.119 h -4.19 l 0.417,-0.935 h 4.19 z m -3.143,-2.073 0.409,-0.919 h 3.973 l -0.409,0.919 z m 5.277,-2.057 h -4.985 l 0.431,-0.967 h 4.985 z m 2.349,8.479 c 0.937,0.482 1.951,1.075 2.559,1.496 l -0.994,0.764 c -0.585,-0.438 -1.578,-1.076 -2.494,-1.606 l 0.789,-0.653 h -2.976 l 0.692,0.545 c -1.195,0.654 -2.942,1.325 -4.27,1.684 -0.074,-0.219 -0.271,-0.546 -0.406,-0.732 1.321,-0.344 3.009,-0.951 3.938,-1.496 H 250.4 l 2.033,-4.567 h 7.446 l -2.033,4.567 h -2.368 z m -4.235,-9.492 c 0.008,-0.576 -0.179,-1.418 -0.424,-2.057 l 1.117,-0.374 c 0.291,0.607 0.506,1.419 0.543,1.964 z m 0.512,8.79 h 5.328 l 0.319,-0.717 h -5.328 z m 1.856,-7.528 h 8.319 l -1.374,3.086 h -8.319 z m -1.287,6.25 h 5.328 l 0.298,-0.67 h -5.328 z m 0.548,-1.231 h 5.328 l 0.292,-0.655 h -5.328 z m 0.613,-2.603 h 1.496 l 0.771,-1.729 h -1.496 z m 4.55,-4.55 h -3.583 l 0.354,-0.795 h 3.583 l 0.382,-0.857 h 1.137 l -0.382,0.857 h 3.817 l -0.354,0.795 h -3.817 l -0.333,0.748 h 3.381 l -0.34,0.764 h -7.556 l 0.34,-0.764 h 3.038 z m -0.515,4.55 0.771,-1.729 h -1.744 l -0.77,1.729 z m 3.107,-1.729 h -1.558 l -0.771,1.729 h 1.558 z"
   id="path52"
   inkscape:connector-curvature="0"
   style="fill:#ffffff" />
		<path
   class="st3"
   d="m 269.733,108.799 c -0.642,0.218 -1.278,0.421 -1.904,0.639 l -2.061,4.629 c -0.285,0.64 -0.58,0.951 -1.053,1.138 -0.441,0.187 -1.054,0.234 -2.029,0.218 0.078,-0.279 0.146,-0.747 0.136,-1.074 0.663,0.015 1.286,0.015 1.465,0 0.187,0 0.286,-0.048 0.39,-0.281 l 1.88,-4.224 -2.159,0.687 0.197,-1.106 c 0.682,-0.203 1.547,-0.468 2.482,-0.749 l 1.464,-3.288 h -1.947 l 0.479,-1.075 h 1.947 l 1.388,-3.117 h 1.091 l -1.388,3.117 h 1.526 l -0.479,1.075 h -1.526 l -1.29,2.898 1.631,-0.514 z m 5.845,-7.496 h 1.091 l -3.04,6.826 c -1.374,3.086 -2.943,5.595 -6.895,7.262 -0.053,-0.265 -0.253,-0.654 -0.42,-0.841 2.857,-1.169 4.32,-2.774 5.404,-4.753 -1.155,0.67 -2.312,1.309 -3.303,1.854 l -0.193,-0.967 c 1.009,-0.483 2.57,-1.293 4.115,-2.104 l 0.208,-0.467 z m -3.506,5.563 c 0.2,-0.903 0.157,-2.275 -0.055,-3.304 l 1.057,-0.452 c 0.257,0.998 0.308,2.354 0.179,3.241 z m 3.423,7.325 c 0.374,0 0.66,-0.468 1.491,-2.229 0.167,0.218 0.489,0.404 0.781,0.483 -1.032,2.072 -1.631,2.789 -2.675,2.789 h -1.62 c -1.122,0 -1.268,-0.374 -0.629,-1.808 l 5.398,-12.125 h 1.106 l -3.074,6.904 0.421,-0.28 c 0.702,0.872 1.463,2.104 1.769,2.851 l -1.132,0.826 c -0.271,-0.685 -0.82,-1.761 -1.404,-2.618 l -1.985,4.458 c -0.285,0.639 -0.254,0.748 0.135,0.748 h 1.418 z m 5.911,-10.721 c -1.146,1.137 -2.513,2.493 -3.524,3.365 l -0.625,-0.452 c 1.003,-0.888 2.455,-2.399 3.341,-3.443 z"
   id="path54"
   inkscape:connector-curvature="0"
   style="fill:#ffffff" />
		<path
   class="st3"
   d="m 286.468,112.991 -1.083,2.431 h -1.091 l 1.083,-2.431 h -3.521 l 0.458,-1.028 h 3.521 l 0.492,-1.106 h -2.882 l 2.346,-5.269 h 6.933 l -2.346,5.269 h -2.96 l -0.492,1.106 h 3.475 l -0.458,1.028 z m -1.639,-3.039 h 1.947 l 0.583,-1.31 h -1.947 z m 0.965,-2.167 h 1.947 l 0.576,-1.292 h -1.947 z m 3.434,-3.023 h -3.194 l 1.38,-3.101 h 3.194 z m 0.132,-2.29 h -1.418 l -0.659,1.48 h 1.418 z m 0.991,6.17 h -1.994 l -0.583,1.31 h 1.994 z m 7.719,-1.167 c -1.188,1.511 -2.618,3.008 -4.166,4.316 -0.227,1.419 -0.109,2.275 0.453,2.307 0.32,0.016 0.936,-0.842 1.716,-2.384 0.114,0.233 0.457,0.514 0.61,0.622 -1.401,2.447 -2.305,3.148 -2.914,3.117 -0.992,-0.046 -1.332,-0.997 -1.171,-2.618 -1.339,1.014 -2.727,1.854 -4.074,2.431 -0.07,-0.265 -0.274,-0.607 -0.481,-0.81 1.587,-0.624 3.215,-1.621 4.753,-2.836 0.261,-1.356 0.77,-3.023 1.429,-4.925 l -1.764,0.218 0.332,-1.06 1.825,-0.218 c 0.496,-1.356 1.07,-2.821 1.703,-4.349 h 1.091 c -0.621,1.465 -1.182,2.898 -1.663,4.224 l 3.832,-0.452 -0.325,1.044 -3.885,0.468 c -0.504,1.449 -0.917,2.759 -1.176,3.865 1.18,-1.075 2.269,-2.26 3.198,-3.476 z m -6.762,-0.982 h -1.994 l -0.576,1.292 h 1.994 z m 1.924,-1.731 h -3.256 l 1.38,-3.101 h 3.256 z m 0.116,-2.29 h -1.48 l -0.659,1.48 h 1.48 z m 5.342,2.103 c 0.015,-0.732 -0.256,-1.838 -0.62,-2.633 l 1.072,-0.484 c 0.385,0.78 0.708,1.839 0.725,2.571 z"
   id="path56"
   inkscape:connector-curvature="0"
   style="fill:#ffffff" />
		<path
   class="st3"
   d="m 311.866,113.365 h -2.056 c 1.377,0.404 2.784,0.92 3.653,1.278 l -1.255,0.685 c -0.848,-0.404 -2.328,-0.966 -3.844,-1.479 l 0.776,-0.483 h -3.459 l 0.498,0.421 c -1.558,0.701 -3.885,1.309 -5.684,1.604 -0.05,-0.202 -0.202,-0.561 -0.323,-0.778 1.584,-0.233 3.636,-0.749 4.917,-1.247 h -1.885 l 1.7,-3.818 c -0.911,0.436 -1.818,0.795 -2.631,1.044 -0.044,-0.249 -0.198,-0.639 -0.326,-0.842 1.528,-0.389 3.358,-1.138 4.774,-2.01 h -3.506 l 0.382,-0.857 h 3.957 l 0.313,-0.701 h -2.149 l 0.305,-0.686 h 2.149 l 0.306,-0.686 h -2.384 l 0.326,-0.732 h 2.384 l 0.306,-0.687 h 1.091 l -0.306,0.687 h 3.552 l 0.306,-0.687 h 1.091 l -0.306,0.687 h 2.337 l -0.326,0.732 h -2.337 l -0.306,0.686 h 2.165 l -0.305,0.686 h -2.165 l -0.313,0.701 h 3.988 l -0.382,0.857 h -3.334 c 0.628,0.795 1.709,1.48 2.865,1.823 -0.316,0.187 -0.831,0.607 -1.099,0.857 -0.62,-0.219 -1.208,-0.577 -1.706,-0.997 z m -0.489,-1.418 h -6.466 l -0.333,0.748 h 6.466 z m -5.491,-7.403 h -1.074 l 1.054,-2.368 h 6.231 c 0,-0.281 -0.03,-0.562 -0.067,-0.795 l 1.277,-0.313 c 0.056,0.328 0.102,0.749 0.099,1.107 h 5.795 l -1.054,2.368 h -1.121 l 0.646,-1.449 h -11.14 z m 6.108,6.016 h -6.466 l -0.326,0.732 h 6.466 z m 0.611,-1.372 h -6.466 l -0.319,0.717 h 6.466 z m -4.62,-1.449 c -0.368,0.265 -0.766,0.53 -1.157,0.778 h 5.936 c -0.185,-0.248 -0.338,-0.498 -0.447,-0.778 z m 0.662,-0.857 h 3.552 l 0.313,-0.701 h -3.552 z m 0.617,-1.387 h 3.552 l 0.306,-0.686 h -3.552 z"
   id="path58"
   inkscape:connector-curvature="0"
   style="fill:#ffffff" />
	</g>
	<g
   id="g68">
		<path
   class="st3"
   d="M180.267,137.172l-2.807,6.306h-19.768l-1.947,4.373h20.677l-2.833,6.363h-20.677l-5.666,12.725h21.529    l-2.833,6.362h-51.125l2.833-6.362h21.586l5.666-12.725h-20.62l2.833-6.363h20.62l1.947-4.373h-19.995l2.807-6.306H180.267z     M123.826,156.258h8.351l-0.324,1.875c-0.124,0.872,0.119,1.307,0.725,1.307h6.646l-2.604,5.851h-9.771    c-2.537,0-3.686-1.42-3.443-4.26L123.826,156.258z M147.579,121.663h32.776l0.98,4.943c0.1,1.135,0.453,1.704,1.059,1.704h4.09    l-3.035,6.817h-7.271c-1.213,0-1.988-0.512-2.328-1.534l-1.757-5.112h-22.268l-6.65,5.112c-1.289,1.022-2.578,1.534-3.865,1.534    h-7.726l3.035-6.817h4.545c0.719,0,1.635-0.568,2.747-1.704L147.579,121.663z M164.499,156.258h8.407    c-3.063,3.901-5.398,6.381-7.005,7.441c-1.723,1.061-3.378,1.59-4.969,1.59h-9.543l2.604-5.851h6.362    C161.415,159.439,162.796,158.38,164.499,156.258z"
   id="path62" />
		<path
   d="M184.322,156.258h6.816l-3.291,10.452h3.692l6.416-10.452h6.532l-6.358,10.452h3.352l-2.934,6.589h-23.461l2.934-6.589    h3.011L184.322,156.258z M194.919,131.946h21.359l-7.587,17.042c-1.333,2.992-3.665,4.487-6.997,4.487h-16.36L194.919,131.946z     M200.935,147.396c1.098,0,1.858-0.473,2.28-1.42l3.516-7.896h-7.499l-4.148,9.315H200.935z M221.336,122.118l-2.934,6.589    h-22.723l2.934-6.589H221.336z M208.577,165.063h7.726l-5.269,6.476c-1.303,1.478-3.184,2.215-5.645,2.215h-5.965l2.428-5.453    h3.465c0.303,0,0.633-0.19,0.992-0.568L208.577,165.063z M249.714,121.663l-2.858,6.419h-9.316l-1.983,2.67h9.202l-12.57,28.231    c-1.417,3.182-3.943,4.772-7.578,4.772h-19.314l14.694-33.004h7.669l1.927-2.67h-10.055l2.858-6.419H249.714z M223.751,157.394    c1.211,0,2.061-0.548,2.55-1.647l0.481-1.08h-10.396l-1.214,2.727H223.751z M217.382,165.063h8.01l-0.279,1.647    c-0.207,1.06,0.145,1.591,1.053,1.591h3.238l-2.529,5.68h-7.044c-2.424,0-3.467-1.061-3.127-3.181L217.382,165.063z     M219.042,148.703h10.396l1.315-2.954h-10.396L219.042,148.703z M222.962,139.898h10.396l1.214-2.727h-10.396L222.962,139.898z"
   id="path64" />
		<path
   d="M266.708,121.891h10.622l-20.436,45.899c-1.77,3.976-4.605,5.964-8.506,5.964h-3.692l2.934-6.589h1.647    c0.87,0,1.518-0.474,1.939-1.42l4.123-9.258h-4.261l-5.033,11.304c-1.813,3.899-4.289,5.888-7.427,5.964h-3.692l2.934-6.589h1.192    c0.303,0,0.666-0.474,1.087-1.42l19.525-43.853H266.708z M253.911,150.123h4.261l3.541-7.953h-4.261L253.911,150.123z     M281.026,142.17h8.236l-1.863,2.272h12.668l-10.926,24.54c-1.349,3.029-3.861,4.544-7.534,4.544h-25.392l12.949-29.084h10.111    L281.026,142.17z M260.31,135.751h4.261l3.237-7.271h-4.261L260.31,135.751z M280.76,167.392c1.211,0,2.02-0.454,2.425-1.363    h-5.51l-1.261-2.783l-3.512,2.783h-6.305l-0.607,1.363H280.76z M267.204,164.665l7.219-5.624l-2.438-5.113L267.204,164.665z     M272.87,151.941h5.681l1.291,2.839l3.707-2.839h5.908l0.632-1.42h-16.587L272.87,151.941z M282.759,121.436h7.271l-8.18,8.805    c-0.342,0.341-0.546,0.587-0.613,0.738c-0.101,0.228-0.134,0.511-0.096,0.853l-0.765,9.373h-7.271l0.961-9.43    c0.033-0.417,0.109-0.757,0.228-1.022c0.084-0.189,0.261-0.417,0.531-0.682L282.759,121.436z M281.922,159.041l2.25,4.772    l4.426-9.941L281.922,159.041z M292.984,121.436h7.271l-8.351,8.805c-0.379,0.341-0.603,0.587-0.669,0.738    c-0.101,0.228-0.114,0.511-0.039,0.853l-0.424,9.373h-7.271l0.563-9.43c0.072-0.417,0.167-0.757,0.285-1.022    c0.084-0.189,0.242-0.417,0.473-0.682L292.984,121.436z M303.266,121.436h7.271l-8.237,8.805    c-0.303,0.341-0.488,0.587-0.555,0.738c-0.101,0.228-0.114,0.511-0.039,0.853l0.258,9.373h-7.271l-0.118-9.43    c0.033-0.417,0.109-0.757,0.228-1.022c0.084-0.189,0.242-0.417,0.473-0.682L303.266,121.436z"
   id="path66" />
	</g>
	<polygon
   points="113.948,79.686 105.548,79.686 103.968,83.349 103.968,83.349 103.778,83.789 102.388,86.996 101.448,89.176    101.081,90.029 100.808,90.659 100.313,91.806 108.715,91.806 109.038,91.059 109.208,90.659 110.608,87.429 112.178,83.789    112.188,83.766  "
   id="polygon70" />
	<polygon
   points="88.348,115.181 88.835,115.891 98.187,115.891 85.898,97.951 85.548,97.441 80.268,89.731 70.918,89.731    72.908,92.641 76.198,97.441 76.548,97.951 83.068,107.471  "
   id="polygon72" />
	<g
   id="g74">
	</g>
	<g
   id="g76">
	</g>
	<g
   id="g78">
	</g>
	<g
   id="g80">
	</g>
	<g
   id="g82">
	</g>
</g>
</svg>