<?xml version="1.0" encoding="UTF-8" standalone="no"?>
<!-- Generator: Adobe Illustrator 22.0.0, SVG Export Plug-In . SVG Version: 6.00 Build 0)  -->

<svg
   xmlns:dc="http://purl.org/dc/elements/1.1/"
   xmlns:cc="http://creativecommons.org/ns#"
   xmlns:rdf="http://www.w3.org/1999/02/22-rdf-syntax-ns#"
   xmlns:svg="http://www.w3.org/2000/svg"
   xmlns="http://www.w3.org/2000/svg"
   xmlns:sodipodi="http://sodipodi.sourceforge.net/DTD/sodipodi-0.dtd"
   xmlns:inkscape="http://www.inkscape.org/namespaces/inkscape"
   version="1.1"
   x="0px"
   y="0px"
   viewBox="0 0 344.72589 269.755"
   xml:space="preserve"
   id="svg85"
   sodipodi:docname="daangoldbrain.svg"
   inkscape:version="0.92.3 (2405546, 2018-03-11)"
   width="344.72589"
   height="269.755"><metadata
   id="metadata91"><rdf:RDF><cc:Work
       rdf:about=""><dc:format>image/svg+xml</dc:format><dc:type
         rdf:resource="http://purl.org/dc/dcmitype/StillImage" /><dc:title></dc:title></cc:Work></rdf:RDF></metadata><defs
   id="defs89" /><sodipodi:namedview
   pagecolor="#ffffff"
   bordercolor="#666666"
   borderopacity="1"
   objecttolerance="10"
   gridtolerance="10"
   guidetolerance="10"
   inkscape:pageopacity="0"
   inkscape:pageshadow="2"
   inkscape:window-width="2560"
   inkscape:window-height="1027"
   id="namedview87"
   showgrid="false"
   inkscape:zoom="1.7408944"
   inkscape:cx="-22.396801"
   inkscape:cy="205.2873"
   inkscape:window-x="-8"
   inkscape:window-y="-8"
   inkscape:window-maximized="1"
   inkscape:current-layer="圖層_2"
   fit-margin-top="1"
   fit-margin-bottom="1"
   fit-margin-left="1"
   fit-margin-right="1" />
<style
   type="text/css"
   id="style2">
	.st0{display:none;opacity:0.3;}
	.st1{display:inline;}
	.st2{fill:#F7931E;}
	.st3{fill:#FFFFFF;}
</style>
<g
   id="圖層_1"
   transform="translate(0.3172646,-0.1790658)">
	<g
   class="st0"
   id="g14"
   style="display:none;opacity:0.3">
		<path
   class="st1"
   d="m 77.76,88.209 c 4.224,12.479 11.967,22.526 23.934,27.39 -1.919,1.6 -4.416,4.992 -5.631,7.167 C 84.48,117.327 77.056,107.983 72.064,95.632 68.608,106.319 61.697,116.302 48.13,122.83 46.914,120.718 44.674,117.967 42.435,116.367 57.09,109.84 63.169,99.216 65.665,88.209 H 43.651 v -7.871 h 23.294 c 0.64,-6.016 0.576,-11.839 0.64,-17.087 h 8.319 c -0.064,5.248 -0.128,11.135 -0.768,17.087 h 25.15 v 7.871 z"
   id="path4"
   inkscape:connector-curvature="0"
   style="display:inline" />
		<path
   class="st1"
   d="m 152.191,95.761 c -1.472,4.671 -3.456,8.639 -5.952,11.903 6.848,2.879 13.183,5.887 17.663,8.703 l -5.632,6.72 c -4.352,-2.944 -10.815,-6.272 -17.982,-9.536 -6.592,5.056 -15.615,7.872 -27.71,9.6 -0.704,-2.048 -3.136,-5.76 -4.736,-7.68 10.111,-0.896 17.791,-2.624 23.486,-5.695 -5.504,-2.304 -11.199,-4.352 -16.255,-5.952 1.664,-2.304 3.456,-5.056 5.184,-8.063 h -12.479 v -7.167 h 16.319 c 1.728,-3.392 3.136,-6.784 4.224,-9.919 l 8.896,1.664 c -1.024,2.624 -2.24,5.439 -3.584,8.255 h 11.263 c 0.32,-1.792 0.512,-3.776 0.704,-5.824 l 9.215,0.576 v -6.208 h -38.077 v 7.167 h -7.744 V 70.099 h 22.718 c -0.704,-1.856 -1.536,-3.84 -2.24,-5.568 l 8.575,-1.984 c 1.088,2.304 2.432,5.184 3.328,7.552 h 21.566 v 14.207 h -8.063 c -0.256,1.472 -0.512,2.88 -0.768,4.288 h 10.047 v 7.167 z m -22.206,0 c -0.959,1.664 -1.855,3.2 -2.815,4.735 3.583,1.152 7.231,2.496 11.007,3.904 2.048,-2.368 3.648,-5.248 4.864,-8.639 z"
   id="path6"
   inkscape:connector-curvature="0"
   style="display:inline" />
		<path
   class="st1"
   d="m 203.904,88.657 v 6.655 h 20.415 v 6.848 h -10.111 l 6.399,2.304 c -2.24,3.584 -4.735,7.424 -6.719,10.175 h 13.759 v 6.976 H 172.29 v -6.976 h 12.607 c -1.024,-2.944 -3.2,-7.167 -5.312,-10.367 l 5.056,-2.112 h -9.279 v -6.848 h 20.351 v -6.655 h -12.991 v -3.136 c -2.688,1.28 -5.44,2.432 -8.256,3.456 -1.024,-2.24 -3.136,-5.12 -5.056,-7.04 12.031,-3.456 23.551,-9.919 29.63,-19.455 l 7.231,3.264 c -0.576,0.832 -1.152,1.664 -1.792,2.56 6.271,5.632 16.639,10.943 26.238,13.631 -1.728,1.664 -4.096,4.672 -5.248,6.656 -2.88,-1.024 -5.823,-2.304 -8.703,-3.712 v 3.776 z M 186.05,102.16 c 2.24,3.136 4.671,7.359 5.567,10.175 l -5.248,2.304 h 9.343 V 102.16 Z m 25.085,-20.478 c -4.032,-2.496 -7.807,-5.312 -11.071,-8.319 -3.072,3.2 -6.591,5.888 -10.367,8.319 z m -7.231,20.478 v 12.479 h 8 l -4.288,-1.792 c 1.984,-2.88 4.352,-7.36 5.631,-10.688 h -9.343 z"
   id="path8"
   inkscape:connector-curvature="0"
   style="display:inline" />
		<path
   class="st1"
   d="m 261.633,113.999 c -8.959,2.176 -18.75,4.479 -26.046,6.144 l -1.728,-7.104 c 4.352,-0.768 10.175,-1.92 16.319,-3.2 l -1.536,-0.384 c 0.896,-3.583 1.92,-9.023 2.24,-13.055 l 7.423,1.6 c -1.088,3.712 -2.176,7.68 -3.2,10.815 l 5.887,-1.216 z m -0.96,-40.893 H 234.947 V 66.13 h 25.726 z m -1.408,22.399 h -22.59 V 77.586 h 22.59 z m -19.711,14.399 c -0.064,-3.008 -0.896,-7.808 -2.112,-11.391 l 6.08,-1.536 c 1.344,3.584 2.304,8.191 2.496,11.199 z m 12.927,-26.367 h -9.407 v 6.016 h 9.407 z m 23.486,30.974 c -3.456,3.264 -9.279,6.656 -14.207,8.511 -1.088,-1.344 -3.328,-3.52 -4.992,-4.863 4.8,-1.664 10.303,-4.928 12.991,-7.616 z m -3.839,-38.077 c 0.256,-1.408 0.448,-2.88 0.64,-4.288 h -10.559 v -6.399 h 30.846 v 6.399 h -11.967 c -0.448,1.472 -0.896,2.944 -1.344,4.288 h 11.903 v 33.79 h -27.902 v -33.79 z m 12.223,5.631 h -13.695 v 4.032 h 13.695 z m 0,9.216 h -13.695 v 4.031 h 13.695 z m 0,9.343 h -13.695 v 4.096 h 13.695 z m 0,10.432 c 3.392,2.24 8.191,5.631 10.688,7.936 l -6.08,4.031 c -2.176,-2.304 -6.848,-5.951 -10.367,-8.383 z"
   id="path10"
   inkscape:connector-curvature="0"
   style="display:inline" />
		<path
   class="st1"
   d="m 319.169,115.151 c 0,3.264 -0.512,5.248 -2.432,6.335 -1.919,1.216 -4.607,1.344 -8.703,1.344 -0.192,-1.856 -1.024,-4.927 -1.856,-6.719 2.368,0.128 4.736,0.064 5.567,0.064 0.768,0 1.088,-0.256 1.088,-1.152 v -14.911 c -1.28,1.28 -2.624,2.624 -3.904,3.968 l -1.792,-4.288 c -0.512,8.191 -1.728,17.086 -4.479,23.486 -1.024,-1.216 -3.776,-3.584 -5.12,-4.288 3.456,-8.768 3.711,-21.438 3.711,-30.718 V 65.427 h 17.919 v 49.724 z M 307.458,88.273 c 0,2.751 -0.064,5.823 -0.192,9.151 1.6,-1.088 3.52,-2.56 5.568,-4.096 v -6.336 l -2.432,1.664 c -0.576,-1.152 -1.728,-2.816 -2.944,-4.416 z m 0,-15.999 v 8 l 1.984,-1.28 c 1.088,1.216 2.368,2.624 3.392,3.967 V 72.274 Z m 20.67,16.063 c -1.472,-3.456 -4.479,-8.384 -7.935,-12.991 2.624,-3.968 5.439,-8.768 6.912,-11.967 l 6.591,1.536 c -1.92,3.52 -4.288,7.231 -6.271,10.367 2.751,3.583 5.503,7.679 6.976,10.495 z m 14.527,-1.152 c -0.768,1.216 -1.6,2.432 -2.432,3.583 h 15.871 v 31.934 h -7.04 v -2.24 H 328.96 v 2.496 h -6.783 V 90.769 h 10.495 c 0.768,-1.792 1.536,-3.52 1.984,-5.056 l 4.479,0.832 c -1.536,-3.2 -4.352,-7.359 -7.423,-11.263 2.496,-3.712 5.248,-8.191 6.72,-11.327 l 6.591,1.6 c -1.92,3.264 -4.16,6.72 -6.144,9.664 2.752,3.328 5.567,7.167 6.912,9.791 l -4.544,1.92 z m 6.4,9.727 h -6.335 l 5.056,2.688 c -1.152,1.728 -2.496,3.52 -4.032,5.184 1.984,1.6 3.84,3.2 5.184,4.543 l -4.288,4.288 c -1.216,-1.408 -3.008,-3.072 -5.12,-4.735 -2.112,1.855 -4.48,3.52 -6.848,4.928 -0.832,-1.216 -2.432,-2.944 -3.712,-3.968 v 4.479 h 20.095 z m -20.095,0 v 12.735 c 2.176,-1.216 4.224,-2.688 6.144,-4.288 -1.792,-1.344 -3.583,-2.624 -5.312,-3.711 L 333.76,98 c 1.728,1.024 3.584,2.24 5.312,3.456 1.344,-1.472 2.56,-3.008 3.456,-4.543 H 328.96 Z m 22.59,-9.535 c -1.6,-3.264 -4.863,-7.936 -8.511,-12.095 2.688,-3.712 5.375,-8.191 6.976,-11.263 l 6.719,1.6 c -1.919,3.2 -4.16,6.656 -6.208,9.536 2.752,3.2 5.696,6.847 7.231,9.471 z"
   id="path12"
   inkscape:connector-curvature="0"
   style="display:inline" />
	</g>
</g>
<g
   id="圖層_2"
   transform="translate(0.3172646,-0.1790658)">
	
	
	
	
	
	
	
	
	
	
	
	
	
	
	
	
	
	<g
   id="g74">
	</g>
	<g
   id="g76">
	</g>
	<g
   id="g78">
	</g>
	<g
   id="g80">
	</g>
	<g
   id="g82">
	</g>
<path
   id="path3719"
   inkscape:connector-curvature="0"
   class="st2"
   d="M 172.04564,1.1790658 C 77.404733,1.1790658 0.6827354,58.72007 0.6827354,129.70107 v 0 c 0,23.66 19.1799976,42.841 42.8409976,42.841 0,0 0,0 0,0 h 42.841 c 0,23.734 19.106907,42.841 42.840907,42.841 h 48.599 c 0.042,0.071 0.077,0.152 0.12,0.225 21.17,1.466 36.941,10.51 36.963,21.196 v 16.065 c 0,8.9 7.165,16.065 16.065,16.065 8.9,0 16.065,-7.165 16.065,-16.065 v -16.065 c 23.734,0 42.841,-19.107 42.841,-42.841 0,-0.306 -0.04,-0.601 -0.048,-0.905 30.935,-5.205 53.591,-31.986 53.598,-63.356 -0.026,-2.39 -0.184,-4.777 -0.476,-7.149 -5.054,-68.038 -80.031,-121.2910042 -170.887,-121.3740042 z"
   style="fill:#f7931e" /><path
   inkscape:connector-curvature="0"
   d="m 70.790163,62.275148 -7.44922,17.230469 h -16.67969 l -3.33008,7.710937 h 16.67969 l -12.33008,28.499996 h 8.40039 l 12.32031,-28.499996 h 27.62891 l 3.339843,-7.710937 H 71.741333 l 7.44922,-17.230469 z m 58.482317,0.002 -2.85546,6.603516 -0.24024,0.552734 -0.22461,0.519531 -0.93555,2.158204 -0.70117,1.626953 -0.99414,2.300781 -1.40039,3.228516 -0.10351,0.238281 h -8.4375 -8.39844 l -1.58008,3.664062 -0.19141,0.439453 -1.38867,3.207032 -0.9414,2.179687 -0.36719,0.853516 -0.27149,0.628906 -0.496046,1.148438 h 8.402296 l 0.32227,-0.748047 0.16992,-0.400391 1.40039,-3.228515 0.0137,-0.0332 h 42.19727 l -1.75977,4.080078 -0.14062,0.330079 h 8.39062 l 0.13868,-0.330079 1.80078,-4.15039 1.40039,-3.230469 1.91015,-4.410156 h -5.08007 -28.69336 l 0.10351,-0.238281 1.40039,-3.228516 2.85547,-6.605469 0.24024,-0.552734 2.85351,-6.603516 z m -12.02148,27.269531 -0.38672,0.894532 h -0.004 l -1.52343,3.519531 h -0.0508 -8.41016 -8.390524 l -3.339853,7.710938 h 8.400297 8.41016 0.0508 l -0.60547,1.40039 -2.13477,4.92969 h -0.006 l -3.33007,7.70898 h 17.08593 l -0.40039,0.92579 -0.58984,1.36914 -1.53906,3.56054 -3.33985,7.70899 -7.45117,17.23047 h 8.40039 l 7.44922,-17.23047 3.33008,-7.70899 1.54102,-3.56054 0.58984,-1.36914 0.40234,-0.92579 h 26.36133 l 2.57031,-5.95898 0.75977,-1.75 h -26.35352 l 1.73047,-3.99609 h -8.40039 l -1.73047,3.99609 h -8.68554 l 0.36914,-0.85547 h 0.01 l 2.36524,-5.47461 h 2.33593 12.82422 3.97461 15.2207 l 3.33985,-7.710938 h -15.2207 -3.97461 -12.83399 -2.33398 l 1.91406,-4.414063 z m -46.900297,0.0039 1.99024,2.910156 3.28906,4.800781 0.35156,0.509766 6.51953,9.519528 5.2793,7.71094 0.48828,0.70898 h 9.351563 l -12.289063,-17.939448 -0.34961,-0.509766 -5.28125,-7.710937 z"
   id="polygon18" /><g
   transform="translate(-0.5672646,-0.1799342)"
   id="g48"><path
     inkscape:connector-curvature="0"
     class="st3"
     d="m 40.707,128.293 h 5.056 c 5.628,0 7.817,2.915 5.044,9.142 -2.762,6.203 -7.624,9.292 -13.052,9.292 H 32.5 Z m -2.054,15.469 c 3.436,0 6.398,-1.843 8.395,-6.327 2.007,-4.509 0.619,-6.202 -2.817,-6.202 h -1.146 l -5.578,12.529 z"
     id="path40"
     style="fill:#ffffff" /><path
     inkscape:connector-curvature="0"
     class="st3"
     d="m 61.732,141.994 h -5.977 l -3.402,4.733 h -3.735 l 14.109,-18.433 h 4.332 l -2.279,18.433 h -3.86 z m 0.478,-2.865 0.351,-2.018 c 0.282,-1.918 0.727,-4.035 1.065,-6.028 h -0.1 c -1.371,2.018 -2.85,4.11 -4.252,6.028 l -1.446,2.018 z"
     id="path42"
     style="fill:#ffffff" /><path
     inkscape:connector-curvature="0"
     class="st3"
     d="m 78.621,141.994 h -5.977 l -3.402,4.733 h -3.735 l 14.108,-18.433 h 4.334 l -2.281,18.433 h -3.859 z m 0.479,-2.865 0.351,-2.018 c 0.281,-1.918 0.726,-4.035 1.066,-6.028 h -0.1 c -1.372,2.018 -2.851,4.11 -4.253,6.028 l -1.446,2.018 z"
     id="path44"
     style="fill:#ffffff" /><path
     inkscape:connector-curvature="0"
     class="st3"
     d="m 93.043,128.293 h 3.76 l 0.984,9.814 0.069,3.986 h 0.124 c 0.655,-1.918 1.467,-4.36 2.399,-6.452 l 3.271,-7.348 h 3.486 l -8.207,18.433 h -3.734 l -0.938,-9.864 -0.104,-3.961 h -0.125 c -0.712,1.993 -1.47,4.31 -2.412,6.427 l -3.294,7.398 h -3.486 z"
     id="path46"
     style="fill:#ffffff" /></g><g
   id="g60"
   transform="translate(-0.5672646,-2.1799342)"><path
     class="st3"
     d="m 230.612,106.181 -4.115,9.241 h -1.091 l 6.079,-13.652 h 5.687 l -1.964,4.411 z m 8.35,7.73 c -0.284,0.639 -0.556,0.935 -1.051,1.138 -0.45,0.171 -1.119,0.202 -2.053,0.202 0.073,-0.233 0.107,-0.593 0.123,-0.872 -0.27,0.186 -0.538,0.265 -0.865,0.265 h -1.355 c -0.981,0 -1.114,-0.265 -0.697,-1.2 l 0.798,-1.792 h -1.277 c -0.962,1.636 -2.132,2.617 -4.459,3.226 0.003,-0.25 -0.096,-0.623 -0.223,-0.795 1.994,-0.452 2.943,-1.185 3.731,-2.431 h -1.105 l 1.242,-2.79 c -0.456,0.218 -0.896,0.437 -1.33,0.607 -0.05,-0.202 -0.259,-0.467 -0.399,-0.607 1.396,-0.546 3.097,-1.465 4.081,-2.307 l 0.81,0.28 c -0.781,0.671 -1.798,1.31 -2.835,1.855 h 5.515 c -0.436,-0.562 -1.021,-1.17 -1.577,-1.638 l 0.854,-0.482 c 0.855,0.67 1.799,1.699 2.219,2.4 l -0.951,0.561 c -0.122,-0.25 -0.309,-0.529 -0.544,-0.841 l -1.318,2.961 h -1.434 l -0.791,1.776 c -0.139,0.311 -0.106,0.342 0.221,0.342 h 1.075 c 0.296,0 0.414,-0.124 0.905,-1.121 0.117,0.155 0.444,0.296 0.697,0.357 -0.297,0.562 -0.548,0.951 -0.792,1.186 0.584,0.016 1.114,0.016 1.27,0.016 0.211,-0.016 0.3,-0.078 0.396,-0.296 l 3.442,-7.73 h -4.704 l 1.95,-4.38 h 5.826 z m -4.501,-8.541 0.465,-1.044 h -3.489 l -0.465,1.044 z m -2.254,-2.774 -0.438,0.982 h 3.489 l 0.438,-0.982 z m -0.395,8.306 h 3.816 l 0.652,-1.465 h -3.816 z m 9.831,-5.532 0.451,-1.013 h -3.599 l -0.451,1.013 z m -2.37,-2.758 -0.444,0.997 h 3.599 l 0.444,-0.997 z"
     id="path50"
     inkscape:connector-curvature="0"
     style="fill:#ffffff" /><path
     class="st3"
     d="m 248.382,114.518 h -3.038 l -0.326,0.732 h -0.95 l 2.325,-5.221 h 3.988 z m -1.462,-3.538 -1.152,2.587 h 2.057 l 1.152,-2.587 z m 4.075,-2.119 h -4.19 l 0.417,-0.935 h 4.19 z m -3.143,-2.073 0.409,-0.919 h 3.973 l -0.409,0.919 z m 5.277,-2.057 h -4.985 l 0.431,-0.967 h 4.985 z m 2.349,8.479 c 0.937,0.482 1.951,1.075 2.559,1.496 l -0.994,0.764 c -0.585,-0.438 -1.578,-1.076 -2.494,-1.606 l 0.789,-0.653 h -2.976 l 0.692,0.545 c -1.195,0.654 -2.942,1.325 -4.27,1.684 -0.074,-0.219 -0.271,-0.546 -0.406,-0.732 1.321,-0.344 3.009,-0.951 3.938,-1.496 H 250.4 l 2.033,-4.567 h 7.446 l -2.033,4.567 h -2.368 z m -4.235,-9.492 c 0.008,-0.576 -0.179,-1.418 -0.424,-2.057 l 1.117,-0.374 c 0.291,0.607 0.506,1.419 0.543,1.964 z m 0.512,8.79 h 5.328 l 0.319,-0.717 h -5.328 z m 1.856,-7.528 h 8.319 l -1.374,3.086 h -8.319 z m -1.287,6.25 h 5.328 l 0.298,-0.67 h -5.328 z m 0.548,-1.231 h 5.328 l 0.292,-0.655 h -5.328 z m 0.613,-2.603 h 1.496 l 0.771,-1.729 h -1.496 z m 4.55,-4.55 h -3.583 l 0.354,-0.795 h 3.583 l 0.382,-0.857 h 1.137 l -0.382,0.857 h 3.817 l -0.354,0.795 h -3.817 l -0.333,0.748 h 3.381 l -0.34,0.764 h -7.556 l 0.34,-0.764 h 3.038 z m -0.515,4.55 0.771,-1.729 h -1.744 l -0.77,1.729 z m 3.107,-1.729 h -1.558 l -0.771,1.729 h 1.558 z"
     id="path52"
     inkscape:connector-curvature="0"
     style="fill:#ffffff" /><path
     class="st3"
     d="m 269.733,108.799 c -0.642,0.218 -1.278,0.421 -1.904,0.639 l -2.061,4.629 c -0.285,0.64 -0.58,0.951 -1.053,1.138 -0.441,0.187 -1.054,0.234 -2.029,0.218 0.078,-0.279 0.146,-0.747 0.136,-1.074 0.663,0.015 1.286,0.015 1.465,0 0.187,0 0.286,-0.048 0.39,-0.281 l 1.88,-4.224 -2.159,0.687 0.197,-1.106 c 0.682,-0.203 1.547,-0.468 2.482,-0.749 l 1.464,-3.288 h -1.947 l 0.479,-1.075 h 1.947 l 1.388,-3.117 h 1.091 l -1.388,3.117 h 1.526 l -0.479,1.075 h -1.526 l -1.29,2.898 1.631,-0.514 z m 5.845,-7.496 h 1.091 l -3.04,6.826 c -1.374,3.086 -2.943,5.595 -6.895,7.262 -0.053,-0.265 -0.253,-0.654 -0.42,-0.841 2.857,-1.169 4.32,-2.774 5.404,-4.753 -1.155,0.67 -2.312,1.309 -3.303,1.854 l -0.193,-0.967 c 1.009,-0.483 2.57,-1.293 4.115,-2.104 l 0.208,-0.467 z m -3.506,5.563 c 0.2,-0.903 0.157,-2.275 -0.055,-3.304 l 1.057,-0.452 c 0.257,0.998 0.308,2.354 0.179,3.241 z m 3.423,7.325 c 0.374,0 0.66,-0.468 1.491,-2.229 0.167,0.218 0.489,0.404 0.781,0.483 -1.032,2.072 -1.631,2.789 -2.675,2.789 h -1.62 c -1.122,0 -1.268,-0.374 -0.629,-1.808 l 5.398,-12.125 h 1.106 l -3.074,6.904 0.421,-0.28 c 0.702,0.872 1.463,2.104 1.769,2.851 l -1.132,0.826 c -0.271,-0.685 -0.82,-1.761 -1.404,-2.618 l -1.985,4.458 c -0.285,0.639 -0.254,0.748 0.135,0.748 h 1.418 z m 5.911,-10.721 c -1.146,1.137 -2.513,2.493 -3.524,3.365 l -0.625,-0.452 c 1.003,-0.888 2.455,-2.399 3.341,-3.443 z"
     id="path54"
     inkscape:connector-curvature="0"
     style="fill:#ffffff" /><path
     class="st3"
     d="m 286.468,112.991 -1.083,2.431 h -1.091 l 1.083,-2.431 h -3.521 l 0.458,-1.028 h 3.521 l 0.492,-1.106 h -2.882 l 2.346,-5.269 h 6.933 l -2.346,5.269 h -2.96 l -0.492,1.106 h 3.475 l -0.458,1.028 z m -1.639,-3.039 h 1.947 l 0.583,-1.31 h -1.947 z m 0.965,-2.167 h 1.947 l 0.576,-1.292 h -1.947 z m 3.434,-3.023 h -3.194 l 1.38,-3.101 h 3.194 z m 0.132,-2.29 h -1.418 l -0.659,1.48 h 1.418 z m 0.991,6.17 h -1.994 l -0.583,1.31 h 1.994 z m 7.719,-1.167 c -1.188,1.511 -2.618,3.008 -4.166,4.316 -0.227,1.419 -0.109,2.275 0.453,2.307 0.32,0.016 0.936,-0.842 1.716,-2.384 0.114,0.233 0.457,0.514 0.61,0.622 -1.401,2.447 -2.305,3.148 -2.914,3.117 -0.992,-0.046 -1.332,-0.997 -1.171,-2.618 -1.339,1.014 -2.727,1.854 -4.074,2.431 -0.07,-0.265 -0.274,-0.607 -0.481,-0.81 1.587,-0.624 3.215,-1.621 4.753,-2.836 0.261,-1.356 0.77,-3.023 1.429,-4.925 l -1.764,0.218 0.332,-1.06 1.825,-0.218 c 0.496,-1.356 1.07,-2.821 1.703,-4.349 h 1.091 c -0.621,1.465 -1.182,2.898 -1.663,4.224 l 3.832,-0.452 -0.325,1.044 -3.885,0.468 c -0.504,1.449 -0.917,2.759 -1.176,3.865 1.18,-1.075 2.269,-2.26 3.198,-3.476 z m -6.762,-0.982 h -1.994 l -0.576,1.292 h 1.994 z m 1.924,-1.731 h -3.256 l 1.38,-3.101 h 3.256 z m 0.116,-2.29 h -1.48 l -0.659,1.48 h 1.48 z m 5.342,2.103 c 0.015,-0.732 -0.256,-1.838 -0.62,-2.633 l 1.072,-0.484 c 0.385,0.78 0.708,1.839 0.725,2.571 z"
     id="path56"
     inkscape:connector-curvature="0"
     style="fill:#ffffff" /><path
     class="st3"
     d="m 311.866,113.365 h -2.056 c 1.377,0.404 2.784,0.92 3.653,1.278 l -1.255,0.685 c -0.848,-0.404 -2.328,-0.966 -3.844,-1.479 l 0.776,-0.483 h -3.459 l 0.498,0.421 c -1.558,0.701 -3.885,1.309 -5.684,1.604 -0.05,-0.202 -0.202,-0.561 -0.323,-0.778 1.584,-0.233 3.636,-0.749 4.917,-1.247 h -1.885 l 1.7,-3.818 c -0.911,0.436 -1.818,0.795 -2.631,1.044 -0.044,-0.249 -0.198,-0.639 -0.326,-0.842 1.528,-0.389 3.358,-1.138 4.774,-2.01 h -3.506 l 0.382,-0.857 h 3.957 l 0.313,-0.701 h -2.149 l 0.305,-0.686 h 2.149 l 0.306,-0.686 h -2.384 l 0.326,-0.732 h 2.384 l 0.306,-0.687 h 1.091 l -0.306,0.687 h 3.552 l 0.306,-0.687 h 1.091 l -0.306,0.687 h 2.337 l -0.326,0.732 h -2.337 l -0.306,0.686 h 2.165 l -0.305,0.686 h -2.165 l -0.313,0.701 h 3.988 l -0.382,0.857 h -3.334 c 0.628,0.795 1.709,1.48 2.865,1.823 -0.316,0.187 -0.831,0.607 -1.099,0.857 -0.62,-0.219 -1.208,-0.577 -1.706,-0.997 z m -0.489,-1.418 h -6.466 l -0.333,0.748 h 6.466 z m -5.491,-7.403 h -1.074 l 1.054,-2.368 h 6.231 c 0,-0.281 -0.03,-0.562 -0.067,-0.795 l 1.277,-0.313 c 0.056,0.328 0.102,0.749 0.099,1.107 h 5.795 l -1.054,2.368 h -1.121 l 0.646,-1.449 h -11.14 z m 6.108,6.016 h -6.466 l -0.326,0.732 h 6.466 z m 0.611,-1.372 h -6.466 l -0.319,0.717 h 6.466 z m -4.62,-1.449 c -0.368,0.265 -0.766,0.53 -1.157,0.778 h 5.936 c -0.185,-0.248 -0.338,-0.498 -0.447,-0.778 z m 0.662,-0.857 h 3.552 l 0.313,-0.701 h -3.552 z m 0.617,-1.387 h 3.552 l 0.306,-0.686 h -3.552 z"
     id="path58"
     inkscape:connector-curvature="0"
     style="fill:#ffffff" /></g><g
   transform="translate(-0.5672646,-0.1799342)"
   id="g68"><path
     inkscape:connector-curvature="0"
     class="st3"
     d="m 180.267,137.172 -2.807,6.306 h -19.768 l -1.947,4.373 h 20.677 l -2.833,6.363 h -20.677 l -5.666,12.725 h 21.529 l -2.833,6.362 h -51.125 l 2.833,-6.362 h 21.586 l 5.666,-12.725 h -20.62 l 2.833,-6.363 h 20.62 l 1.947,-4.373 h -19.995 l 2.807,-6.306 z m -56.441,19.086 h 8.351 l -0.324,1.875 c -0.124,0.872 0.119,1.307 0.725,1.307 h 6.646 l -2.604,5.851 h -9.771 c -2.537,0 -3.686,-1.42 -3.443,-4.26 z m 23.753,-34.595 h 32.776 l 0.98,4.943 c 0.1,1.135 0.453,1.704 1.059,1.704 h 4.09 l -3.035,6.817 h -7.271 c -1.213,0 -1.988,-0.512 -2.328,-1.534 l -1.757,-5.112 h -22.268 l -6.65,5.112 c -1.289,1.022 -2.578,1.534 -3.865,1.534 h -7.726 l 3.035,-6.817 h 4.545 c 0.719,0 1.635,-0.568 2.747,-1.704 z m 16.92,34.595 h 8.407 c -3.063,3.901 -5.398,6.381 -7.005,7.441 -1.723,1.061 -3.378,1.59 -4.969,1.59 h -9.543 l 2.604,-5.851 h 6.362 c 1.06,0.001 2.441,-1.058 4.144,-3.18 z"
     id="path62"
     style="fill:#ffffff" /><path
     inkscape:connector-curvature="0"
     d="m 184.322,156.258 h 6.816 l -3.291,10.452 h 3.692 l 6.416,-10.452 h 6.532 l -6.358,10.452 h 3.352 l -2.934,6.589 h -23.461 l 2.934,-6.589 h 3.011 z m 10.597,-24.312 h 21.359 l -7.587,17.042 c -1.333,2.992 -3.665,4.487 -6.997,4.487 h -16.36 z m 6.016,15.45 c 1.098,0 1.858,-0.473 2.28,-1.42 l 3.516,-7.896 h -7.499 l -4.148,9.315 h 5.851 z m 20.401,-25.278 -2.934,6.589 h -22.723 l 2.934,-6.589 z m -12.759,42.945 h 7.726 l -5.269,6.476 c -1.303,1.478 -3.184,2.215 -5.645,2.215 h -5.965 l 2.428,-5.453 h 3.465 c 0.303,0 0.633,-0.19 0.992,-0.568 z m 41.137,-43.4 -2.858,6.419 h -9.316 l -1.983,2.67 h 9.202 l -12.57,28.231 c -1.417,3.182 -3.943,4.772 -7.578,4.772 h -19.314 l 14.694,-33.004 h 7.669 l 1.927,-2.67 h -10.055 l 2.858,-6.419 h 27.324 z m -25.963,35.731 c 1.211,0 2.061,-0.548 2.55,-1.647 l 0.481,-1.08 h -10.396 l -1.214,2.727 z m -6.369,7.669 h 8.01 l -0.279,1.647 c -0.207,1.06 0.145,1.591 1.053,1.591 h 3.238 l -2.529,5.68 h -7.044 c -2.424,0 -3.467,-1.061 -3.127,-3.181 z m 1.66,-16.36 h 10.396 l 1.315,-2.954 h -10.396 z m 3.92,-8.805 h 10.396 l 1.214,-2.727 h -10.396 z"
     id="path64" /><path
     inkscape:connector-curvature="0"
     d="m 266.708,121.891 h 10.622 l -20.436,45.899 c -1.77,3.976 -4.605,5.964 -8.506,5.964 h -3.692 l 2.934,-6.589 h 1.647 c 0.87,0 1.518,-0.474 1.939,-1.42 l 4.123,-9.258 h -4.261 l -5.033,11.304 c -1.813,3.899 -4.289,5.888 -7.427,5.964 h -3.692 l 2.934,-6.589 h 1.192 c 0.303,0 0.666,-0.474 1.087,-1.42 l 19.525,-43.853 h 7.044 z m -12.797,28.232 h 4.261 l 3.541,-7.953 h -4.261 z m 27.115,-7.953 h 8.236 l -1.863,2.272 h 12.668 l -10.926,24.54 c -1.349,3.029 -3.861,4.544 -7.534,4.544 h -25.392 l 12.949,-29.084 h 10.111 z m -20.716,-6.419 h 4.261 l 3.237,-7.271 h -4.261 z m 20.45,31.641 c 1.211,0 2.02,-0.454 2.425,-1.363 h -5.51 l -1.261,-2.783 -3.512,2.783 h -6.305 l -0.607,1.363 z m -13.556,-2.727 7.219,-5.624 -2.438,-5.113 z m 5.666,-12.724 h 5.681 l 1.291,2.839 3.707,-2.839 h 5.908 l 0.632,-1.42 h -16.587 z m 9.889,-30.505 h 7.271 l -8.18,8.805 c -0.342,0.341 -0.546,0.587 -0.613,0.738 -0.101,0.228 -0.134,0.511 -0.096,0.853 l -0.765,9.373 h -7.271 l 0.961,-9.43 c 0.033,-0.417 0.109,-0.757 0.228,-1.022 0.084,-0.189 0.261,-0.417 0.531,-0.682 z m -0.837,37.605 2.25,4.772 4.426,-9.941 z m 11.062,-37.605 h 7.271 l -8.351,8.805 c -0.379,0.341 -0.603,0.587 -0.669,0.738 -0.101,0.228 -0.114,0.511 -0.039,0.853 l -0.424,9.373 h -7.271 l 0.563,-9.43 c 0.072,-0.417 0.167,-0.757 0.285,-1.022 0.084,-0.189 0.242,-0.417 0.473,-0.682 z m 10.282,0 h 7.271 l -8.237,8.805 c -0.303,0.341 -0.488,0.587 -0.555,0.738 -0.101,0.228 -0.114,0.511 -0.039,0.853 l 0.258,9.373 h -7.271 l -0.118,-9.43 c 0.033,-0.417 0.109,-0.757 0.228,-1.022 0.084,-0.189 0.242,-0.417 0.473,-0.682 z"
     id="path66" /></g></g>
</svg>