<?xml version="1.0" encoding="utf-8"?>
<!-- Generator: Adobe Illustrator 22.0.0, SVG Export Plug-In . SVG Version: 6.00 Build 0)  -->
<svg version="1.1" xmlns="http://www.w3.org/2000/svg" xmlns:xlink="http://www.w3.org/1999/xlink" x="0px" y="0px"
	 viewBox="0 0 344.2 271.1" style="enable-background:new 0 0 344.2 271.1;" xml:space="preserve">
<style type="text/css">
	.st0{display:none;opacity:0.3;}
	.st1{font-family:'NotoSansCJKtc-Bold-B5pc-H';}
	.st2{font-size:64px;}
	.st3{fill:#F7931E;}
	.st4{fill:#FFFFFF;}
	.st5{font-size:27.2661px;}
	.st6{font-family:'NotoSansCJKtc-Regular-B5pc-H';}
	.st7{font-size:17.0536px;}
	.st8{letter-spacing:3.3;}
	.st9{font-family:'DFZongYi-Bd-HK-BF';}
	.st10{font-size:63.6732px;}
	.st11{letter-spacing:2.2;}
</style>
<g id="圖層_1">
	<text transform="matrix(1 0 0 1 39.8747 117.3912)" class="st0 st1 st2">大安金頭腦</text>
</g>
<g id="圖層_2">
	<path id="path3719" inkscape:connector-curvature="0" class="st3" d="M172.6,1.4C78,1.4,1.3,58.9,1.3,129.9l0,0
		c0,23.7,19.2,42.8,42.8,42.8c0,0,0,0,0,0h42.8c0,23.7,19.1,42.8,42.8,42.8h48.6c0,0.1,0.1,0.2,0.1,0.2c21.2,1.5,36.9,10.5,37,21.2
		V253c0,8.9,7.2,16.1,16.1,16.1s16.1-7.2,16.1-16.1V237c23.7,0,42.8-19.1,42.8-42.8c0-0.3,0-0.6,0-0.9c30.9-5.2,53.6-32,53.6-63.4
		c0-2.4-0.2-4.8-0.5-7.1C338.4,54.7,263.5,1.4,172.6,1.4L172.6,1.4z"/>
	<polygon points="99.9,79.7 96.6,87.4 43.9,87.4 47.2,79.7 	"/>
	<polygon points="159.5,79.7 159.5,87.4 104,87.4 107.3,79.7 	"/>
	<polygon points="161.7,108.2 160.9,109.9 158.3,115.9 106.5,115.9 109.8,108.2 	"/>
	<polygon points="95.7,101.9 104.1,101.9 112.5,101.9 120.9,101.9 136.1,101.9 139.5,94.1 124.3,94.1 115.9,94.1 107.4,94.1 
		99.1,94.1 	"/>
	<polygon points="114.9,101.9 123.3,101.9 131.7,101.9 140.1,101.9 155.3,101.9 158.7,94.1 143.4,94.1 135,94.1 126.6,94.1 
		118.2,94.1 	"/>
	<polygon points="79.8,62.5 72.3,79.7 69,87.4 56.6,115.9 48.2,115.9 60.6,87.4 63.9,79.7 71.4,62.5 	"/>
	<polygon points="117.8,89.7 117.4,90.6 117.4,90.6 115.3,95.5 112,103.3 106.5,115.9 114.9,115.9 118.2,108.2 118.6,107.3 
		118.6,107.3 121.9,99.6 124.1,94.7 126.2,89.7 	"/>
	<polygon points="127,69.1 125.6,72.3 123.7,76.8 132,76.8 134,72.3 135.4,69.1 138.2,62.5 129.8,62.5 	"/>
	<polygon points="123.9,76.2 122.5,79.4 120.6,83.9 128.9,83.9 130.9,79.4 132.3,76.2 135.1,69.6 126.7,69.6 	"/>
	<polygon points="164.6,79.7 162.6,84.1 161.2,87.3 159.4,91.5 159.3,91.8 150.9,91.8 151.1,91.5 152.8,87.4 152.8,87.3 154.2,84.1 
		156.2,79.7 	"/>
	<polygon points="128.6,104.2 137,104.2 134.9,109.1 134.3,110.5 131.6,116.8 131,118.2 129.4,121.7 126.1,129.5 118.7,146.7 
		110.3,146.7 117.7,129.5 121.1,121.7 122.6,118.2 123.2,116.8 125.9,110.5 126.5,109.1 	"/>
	<text transform="matrix(0.9135 0 -0.4067 0.9135 30.2645 146.6859)" class="st4 st1 st5">DAAN</text>
	<text transform="matrix(0.9135 0 -0.4067 0.9135 224.5986 114.1813)" class="st4 st6 st7 st8">閱讀挑戰賽</text>
	<text transform="matrix(0.9135 0 -0.4067 0.9135 115.1383 165.0789)"><tspan x="0" y="0" class="st4 st9 st10 st11">金</tspan><tspan x="66.2" y="0" class="st9 st10 st11">頭腦</tspan></text>
	<polygon points="113.9,79.7 105.5,79.7 104,83.3 104,83.3 103.8,83.8 102.4,87 101.4,89.2 101.1,90 100.8,90.7 100.3,91.8 
		108.7,91.8 109,91.1 109.2,90.7 110.6,87.4 112.2,83.8 112.2,83.8 	"/>
	<polygon points="88.3,115.2 88.8,115.9 98.2,115.9 85.9,98 85.5,97.4 80.3,89.7 70.9,89.7 72.9,92.6 76.2,97.4 76.5,98 83.1,107.5 
			"/>
</g>
</svg>
